/* XPM */
static char *f2f1f917eb2b4e45fe48ca880eb35021HIi6yilKRpS9v6tj[] = {
/* columns rows colors chars-per-pixel */
"25 23 190 2 ",
"   c None",
".  c black",
"X  c #090000",
"o  c #150000",
"O  c #160000",
"+  c #180000",
"@  c #1A0300",
"#  c #1D0000",
"$  c #1B0B08",
"%  c #1C0C0A",
"&  c #1B0E0E",
"*  c #1C0D0D",
"=  c #1C0E0F",
"-  c #000115",
";  c #0B0811",
":  c #080A15",
">  c #0A0E19",
",  c #0C0E19",
"<  c #120E16",
"1  c #180E11",
"2  c #190E11",
"3  c #1D1113",
"4  c #280000",
"5  c #2A0900",
"6  c #2A0A00",
"7  c #2A0B00",
"8  c #2B0B00",
"9  c #221007",
"0  c #271307",
"q  c #221109",
"w  c #231109",
"e  c #22110A",
"r  c #25130C",
"t  c #26140C",
"y  c #2A170C",
"u  c #2B170D",
"i  c #2B180D",
"p  c #351D00",
"a  c #381C00",
"s  c #221717",
"d  c #22191B",
"f  c #25191B",
"g  c #271A1A",
"h  c #231A1E",
"j  c #38210B",
"k  c #382419",
"l  c #39261F",
"z  c #000020",
"x  c #1D1F2D",
"c  c #29222A",
"v  c #2A2D3D",
"b  c #3A353F",
"n  c #4E1E00",
"m  c #501E00",
"M  c #4E2000",
"N  c #4F2000",
"B  c #4C2200",
"V  c #4A2900",
"C  c #4F2D00",
"Z  c #4B2E0D",
"A  c #5D3500",
"S  c #503108",
"D  c #50310B",
"F  c #50310C",
"G  c #54340D",
"H  c #4F341E",
"J  c #613600",
"K  c #613700",
"L  c #623700",
"P  c #633800",
"I  c #4C3424",
"U  c #4D372E",
"Y  c #503627",
"T  c #5C3E22",
"R  c #513728",
"E  c #50382A",
"W  c #563A28",
"Q  c #513A2F",
"!  c #523B30",
"~  c #573E33",
"^  c #523C35",
"/  c #6C451A",
"(  c #70471C",
")  c #70481D",
"_  c #72491D",
"`  c #704F36",
"'  c #745237",
"]  c #755338",
"[  c #765439",
"{  c #775539",
"}  c #2C3345",
"|  c #2D3548",
" . c #2E354A",
".. c #3C3441",
"X. c #3C3C53",
"o. c #3F425A",
"O. c #3F4459",
"+. c #334266",
"@. c #434353",
"#. c #4D4651",
"$. c #464A5F",
"%. c #484B5F",
"&. c #4B4C5F",
"*. c #735642",
"=. c #775944",
"-. c #785A44",
";. c #7A5B45",
":. c #7A5B46",
">. c #464A60",
",. c #414967",
"<. c #4C4D60",
"1. c #4C4E61",
"2. c #424C6C",
"3. c #4D536B",
"4. c #49526E",
"5. c #565163",
"6. c #5A5769",
"7. c #4A5572",
"8. c #4C5775",
"9. c #4D5977",
"0. c #4C5978",
"q. c #5C5F7A",
"w. c #635C68",
"e. c #6C6267",
"r. c #60627B",
"t. c #61647D",
"y. c #706C71",
"u. c #7F7C7F",
"i. c #556382",
"p. c #5D6580",
"a. c #5C6887",
"s. c #5B678A",
"d. c #5A6889",
"f. c #5F6F96",
"g. c #606782",
"h. c #616884",
"j. c #626985",
"k. c #626986",
"l. c #636B88",
"z. c #646E8E",
"x. c #666F8E",
"c. c #697080",
"v. c #6C738D",
"b. c #737A84",
"n. c #757B87",
"m. c #606E91",
"M. c #637092",
"N. c #637296",
"B. c #647296",
"V. c #60719A",
"C. c #657599",
"Z. c #677598",
"A. c #677599",
"S. c #69779B",
"D. c #6A799D",
"F. c #69799E",
"G. c #687A9F",
"H. c #6A7A9F",
"J. c #797E92",
"K. c #6B7CA1",
"L. c #6C7CA2",
"P. c #817E80",
"I. c #7B8391",
"U. c #7381A1",
"Y. c #7685A8",
"T. c #8C8180",
"R. c #928683",
"E. c #938784",
"W. c #958985",
"Q. c #968A86",
"!. c #828EA7",
"~. c #8693AF",
"^. c #9FA2AB",
"/. c #9CA6B7",
"(. c #A7A9B0",
"). c #A8AAB1",
"_. c #ABADB3",
"`. c #ACAEB3",
"'. c #ADB5C3",
"]. c #B1BCCB",
"[. c #B5BDC8",
"{. c #B6BEC8",
"}. c #B6BFC9",
"|. c #B9C1CB",
" X c #BAC2CB",
".X c #BAC3CC",
"XX c #BAC4D0",
"oX c #BCC6D1",
"OX c #BEC8D3",
"+X c #C0CAD4",
/* pixels */
"      = @ O O O $ = $ % % % % = $ O O O @ &       ",
"    r p ..,.2.o.l j k k k k k j l o.2.,...p r     ",
"    t V w.U.Y.v.~ G W W W W W G ^ v.Y.I.w.V t     ",
"    y A T.'.].^.*./ ` ` ` ` ` / *./.].'.T.A y     ",
"    i P Q..X+X`.:._ [ [ { { { _ :._.OX|.Q.P i     ",
"    y L E.}.oX).:._ ' [ ' [ [ ( :.).OX|.E.L u     ",
"    y L E.}.XX).=.( [ ' ' [ ' _ :.(.XX}.E.L u     ",
"    u L Q..XOX_.:._ [ [ [ [ [ _ :._.OX|.Q.L y     ",
"    y P R.}.XX).=./ ' ' ' ' ' / =.(.XX[.E.L y     ",
"    0 M e.!.~.J.T m n B M M n m T J.~.!.e.n 0     ",
"    g #.q.f.V.s.5.y.T.u.u.u.P.y.5.s.V.m.q.#.g     ",
"    c a.D.B.B.N.B./.|.[.}.}..X/.B.C.C.C.G.a.c     ",
"    f @.3.8.9.4.$.c.I.n.b.n.I.c.$.4.8.8.3.@.f     ",
"  3 q 4 b 7.9.$.a X.+.z . z +.X.a <.0.7.b 4 q 3   ",
"  1 q 6 &.S.G.g.Y r.m. .-  .m.r.Y g.G.C.&.6 q 1   ",
"  1 q 6 <.S.K.j.R t.G.d.i.d.G.t.Y j.K.S.<.6 q 1   ",
"  1 q 6 <.C.K.h.E 6.z.x.x.x.z.6.E h.G.Z.&.8 0 1   ",
"  1 0 8 <.C.K.h.Q H ^ ^ ^ ^ ^ H Q j.G.S.<.8 q 1   ",
"> < = # <.S.K.l.Q C D D F D D C ! l.L.S.%.# = < > ",
"    : X o.m.C.p.U Z I I I I I Z U p.C.M.O.X :     ",
"    , ; x }  .v h s d d d d d s h v  .} x ; ,     ",
"                                                  ",
"          , , , , , , , , , , , , , , ,           "
};
