/* XPM */
static char * exit_xpm[] = {
"53 48 36 1",
" 	c #509B66",
".	c #479545",
"+	c #4D9D48",
"@	c #4D9D49",
"#	c #509B66",
"$	c #BE4A2F",
"%	c #733E39",
"&	c #509B66",
"*	c #E8B796",
"=	c #EAD4AA",
"-	c #C28569",
";	c #1E6DD5",
">	c #0099DB",
",	c #124E89",
"'	c #2CE8F5",
")	c #3A4466",
"!	c #C0CBDC",
"~	c #509B66",
"{	c #8B9BB4",
"]	c #262B44",
"^	c #5A6988",
"/	c #509B66",
"(	c #4DA048",
"_	c #499A46",
":	c #E4A672",
"<	c #509B66",
"[	c #B86F50",
"}	c #385F55",
"|	c #3A8146",
"1	c #509B66",
"2	c #499B46",
"3	c #265C42",
"4	c #509B66",
"5	c #3C8646",
"6	c #4AA26A",
"7	c #4DA76F",
"  ... ........ ...+            @@@@@@@############   ",
"  ##   ......   ..                ################   ",
"  ##   #.....   ##  $$$$$$$$$$$$  ################   ",
"  ################%%&&&&&&&&&&&&%%################   ",
"  ##############%%**&&&&&&&&&&&&**%%##############   ",
"  ############%%****============****%%############   ",
"  ##########%%****--$$$$$$$$$$$$--****%%##########   ",
"  ########%%****--$$%;;;;;;;;;;%$$--****%%########   ",
"  ######%%****--$$%%>>>>>>>>>>>>%%$$--****%%######   ",
"  ####%%****--$$%%,>'''''>>'''''>,%%$$--****%%####   ",
"  #%%%****--$$%%;;,,''',;;;;,''',,;;%%$$--****%%%#   ",
"  %&&&**)))))))>>;,>''''''''''''>,;>>;%%$$--**&&&%   ",
"  %&&&-)&!!!!!&)>;,>''''''''''''>,;>>',;%%$$--&&&%   ",
"  %---)&)))))))&),,>'''''>>'''''>,,;>',;>;%%$$---%   ",
"  %$$$)!)!!!!!)!);,,''',;;;;,''',,;>>,,;>>'%%%$$$%   ",
"  #%%%)!!!!!!!!!);,>''''''''''''>,;>>',;>>',;;%%%~   ",
"~~ ,;>){!!!!!!!{);,>''''''''''''>,;>>',,;>',;>>;, ~~~",
"~~ ,'>]^^^^^^^^^],,>'''''>>'''''>,,;>',;>>,,;>>', ~~~",
"~~ ,'>]^^^^^^^^^];,,''',;;;;,''',,;>>,,;>>',,;>', ~~~",
"~~ ,,>]^^^^^^^^^];,>''''''''''''>,;>>',;>>',;>>,, ~~/",
"//(,'>,)^^^^^^^),;,>''''''''''''>,;>>',,;>',;>>', ///",
"__(,'>>,,,,,,,,,;,,>>>>>>>>>>>>>>,,;>',;>>,,;>>', ///",
"__(,'>;,,'>>;,,>>;,>::::::::::::>,;>>,,;>>',,;>', ///",
"__(,,>>;,'>>;,'>>;$$&&&&&&&&&&&&$$;>>',;>>',;>>,, <<<",
"__(,'>>;,'>;,,'>$$==&&&&&&&&&&&&==$$>',,;>',;>>', <<<",
"__(,'>>;,,>>;,$$====::::::::::::====$$,;>>,,;>>', <<<",
"__(,'>;,,'>>$$====::::::::::::::::====$$>>',,;>', <<<",
"__(,,>>;,'$$====::::%%%%%%%%%%%%::::====$$',;>>,, <<<",
"__(,'>>;$$====::::%%$$$$$$$$$$$$%%::::====$$;>>', <<<",
"__(,'>$$====::::%%$$::::::::::::$$%%::::====$$>', <<<",
"__($$$====::::%%$$::::::::::::::::$$%%::::====$$$ <<<",
"__%&&&==::::%%$$[[[[[[[[[[[[[[[[[[[[$$%%::::==&&&%<<<",
"((%&&&::::%%$$------------------------$$%%::::&&&%   ",
"((%:::::%%$$::::::::::::::::::::::::::::$$%%:::::%   ",
"((%:::%%$$::::::::::::::::::::::::::::::::$$%%:::%   ",
"((_%%%$$%$::::::::::::::::::::::::::::::::$%$$%%%<   ",
"((__%$::%$[[[[[[[%]]]]]]]]]]]]]]]]%[[[[[[[$%::$%<<   ",
"}(__%:::%$-------%]]]]]]]]]]]]]]]]%-------$%:::%<<   ",
"}(__%:::%$::::::::%]]]]]]]]]]]]]]%::::::::$%:::%<<   ",
"}|__%:::%$::::::::%]]]]]]]]]]]]]]%::::::::$%:::%<<   ",
"|(__%:::%$::::::::%]]]]]]]]]]]]]]%::::::::$%:::%<<  1",
"((22%:::%$[[[[[[[%]]333333333333]]%[[[[[[[$%:::%44  &",
"((_2%:::%$-------%]]333333333333]]%-------$%:::%44  &",
"((22%:::%$::::::::%]555555555555]%::::::::$%:::%44  1",
"((26%:::%$::::::::]              ]::::::::$%:::%64   ",
"((2266666666666666                6666666666666644   ",
"  4444444444444444                4444444444444444   ",
"  4444444444444444                4444444444444444   "};
