/* XPM */
static char *dbb226aa11f646e5d31521f7013a21e2kKA8Oj95VGtpZvKf[] = {
/* columns rows colors chars-per-pixel */
"50 50 3 1 ",
"  c #296640",
". c #509B66",
"X c #69B57F",
/* pixels */
"..................................................",
"..................................................",
"..........................XX......................",
"....................XXX..XX  .....................",
"....XX...............XXX.X  ......................",
"....XXX..XX.........  XX...XXX....................",
"...  XX.XXX..........  X..XXX.....................",
"....  X.XX  ..............XX  ....XXX.............",
"........X  ...............X  ......XXX............",
"..................................  XX............",
"..................................XX X..XX........",
"..................................XXX..XX  ...... ",
".................................  XX..X  ........",
"..................................  X.............",
"..................................................",
"..................................................",
"..................................................",
".............XX...................................",
".......XXX..XX  ........................XX........",
"........XXX.X  .........................XXX..XX...",
".......  XX...XXX......................  XX.XXX...",
"........  X..XXX........................  X.XX  ..",
".............XX  ....XXX....................X  ...",
".............X  ......XXX................   ..XXX.",
".....................  XX...............     XXX..",
".....................XX X..XX........XX.     XX  .",
".....................XXX..XX  ......  XX.   .X  ..",
"....................  XX..X  ........  X..........",
".....................  X..........................",
"..................................................",
"..................................................",
"..................................................",
"..................................................",
"..................XX..............................",
"............XXX..XX  ........................XX...",
".............XXX.X  .........................XXX..",
".XX.........  XX...XXX......................  XX.X",
"XXX..........  X..XXX........................  X.X",
"XX  ..............XX  ....XXX....................X",
"X  ...............X  ......XXX................   .",
"..........................  XX...............     ",
"..........................XX X..XX........XX.     ",
"..........................XXX..XX  ......  XX.   .",
".........................  XX..X  ........  X.....",
"..........................  X.....................",
"..................................................",
"..................................................",
"..................................................",
"..................................................",
"................XX................................"
};
