/* XPM */
static char * p_right_xpm[] = {
"16 29 28 1",
" 	c #509B66",
".	c #131313",
"+	c #2E2E2E",
"@	c #585858",
"#	c #464646",
"$	c #747474",
"%	c #24112F",
"&	c #FDD8C6",
"*	c #B98768",
"=	c #F2AF7D",
"-	c #DCC7CC",
";	c #F8F8F8",
">	c #E1D5D5",
",	c #F7C8C8",
"'	c #E0DCDC",
")	c #ACA3A5",
"!	c #F6BDBD",
"~	c #BA9496",
"{	c #F8D4D4",
"]	c #A7A7A9",
"^	c #E2CACA",
"/	c #E0E0E0",
"(	c #FAF8F8",
"_	c #373735",
":	c #F6F6F6",
"<	c #555553",
"[	c #96442C",
"}	c #AEAEC5",
"      .+++      ",
"   ..+.@@@+     ",
"   .@@@+@@@+.   ",
"  ..#@@@#@@@++  ",
" ....#@@@@@$#.  ",
" .+@@@@@@@$$@+. ",
".+@@$@@$$#@@@@. ",
"+###@@#@@##@@@. ",
"+##@@@######@#% ",
"..++######+###% ",
" .++#####&&+##% ",
" .+#####+&&&&&% ",
" ..##+**+**&&%  ",
"  .++*&=+-%&&%  ",
"  %++*&==;%&&%  ",
"   %++**=&&&&%  ",
"   %%%+*==&=%   ",
"     %%**%%%    ",
"     %>,'=%     ",
"     %)!~{%     ",
"     %]^]/%     ",
"     _%=&%%     ",
"     _%&=%%     ",
"     _<%%_%     ",
"     %<<_%      ",
"     %__%       ",
"      %[[%      ",
"      %}}%      ",
"       %%%      "};
