/* XPM */
static char * p_up_xpm[] = {
"16 29 54 1",
" 	c #509B66",
".	c #2E2E2E",
"+	c #585858",
"@	c #131313",
"#	c #464646",
"$	c #747474",
"%	c #F2AF7D",
"&	c #000700",
"*	c #040005",
"=	c #000300",
"-	c #B98768",
";	c #40112E",
">	c #E0DCDC",
",	c #F6BEBE",
"'	c #E2CDCD",
")	c #E1D9D9",
"!	c #E3C3C3",
"~	c #E0E0E0",
"{	c #F6BFBF",
"]	c #E1D8D8",
"^	c #24112F",
"/	c #E2CECE",
"(	c #F5B6B6",
"_	c #F8D2D2",
":	c #F8D3D3",
"<	c #F6C1C1",
"[	c #F3A6A6",
"}	c #F4B4B4",
"|	c #2D112F",
"1	c #F9D7D7",
"2	c #B5999B",
"3	c #F8CCCC",
"4	c #F7CCCC",
"5	c #F6C5C5",
"6	c #F5BABA",
"7	c #FADDDD",
"8	c #B89698",
"9	c #F6C2C2",
"0	c #45112E",
"a	c #F8CDCD",
"b	c #F5BBBB",
"c	c #F8CFCF",
"d	c #FADEDE",
"e	c #FDD8C6",
"f	c #F8CECE",
"g	c #F4B2B2",
"h	c #F7CDCD",
"i	c #373735",
"j	c #FBE3E3",
"k	c #555553",
"l	c #5F112C",
"m	c #625351",
"n	c #96442C",
"o	c #AEAEC5",
"      ...       ",
"  .....++.@     ",
"  .#++#.++..    ",
"  @.#++##++#.@  ",
" @...#+++#++..@ ",
" .#$+++++++$+#. ",
"..++++$$+#$$++. ",
".++++#+++.#+++. ",
"@#++#.++##.#++@ ",
"@@##.#########@ ",
" @######.#####@ ",
" @.##########.@ ",
" @%.########.%@ ",
" @%..######..%@ ",
"  &*..####..*=  ",
"   =........*   ",
"    **-%%-**    ",
"   ;>,')!~{]^   ",
"  ^/'(_:<[}~~^  ",
"  |1234567789|  ",
" ^)10ab,c{4^d)^ ",
"^%e^^)fgh<~^^e%^",
"^e%^^i119ji^^%e^",
" ^^ ^kk^lmk^ ^^ ",
"    ^i^  ^i^    ",
"    ^i^  ^i^    ",
"   ^no^  ^on^   ",
"   ^oo^  ^oo^   ",
"    ^^    ^^    "};
