/* XPM */
static char * player_right_xpm[] = {
"30 42 475 2",
"  	c #509B66",
". 	c #DFDFDF",
"+ 	c #8B8B8B",
"@ 	c #000000",
"# 	c #8E8E8E",
"$ 	c #130A04",
"% 	c #25170B",
"& 	c #2C1C0E",
"* 	c #2C1B0E",
"= 	c #28190C",
"- 	c #221309",
"; 	c #7E7D7C",
"> 	c #C3C3C3",
", 	c #C4C3C3",
"' 	c #817E7C",
") 	c #25160B",
"! 	c #130904",
"~ 	c #797979",
"{ 	c #E0E0E0",
"] 	c #E9E9E9",
"^ 	c #F8F8F8",
"/ 	c #402A18",
"( 	c #4B321D",
"_ 	c #472E1B",
": 	c #3D2616",
"< 	c #58514D",
"[ 	c #7C7A7A",
"} 	c #7F7C7A",
"| 	c #625650",
"1 	c #26170B",
"2 	c #494949",
"3 	c #898989",
"4 	c #8C8C8C",
"5 	c #B4B4B4",
"6 	c #E8E8E8",
"7 	c #24160A",
"8 	c #402918",
"9 	c #4E341F",
"0 	c #543822",
"a 	c #533721",
"b 	c #4C311D",
"c 	c #3E2717",
"d 	c #2C1A0E",
"e 	c #352112",
"f 	c #4D321E",
"g 	c #4D331E",
"h 	c #28180C",
"i 	c #7D7A79",
"j 	c #F9F9F9",
"k 	c #120903",
"l 	c #3B2616",
"m 	c #4F341F",
"n 	c #563923",
"o 	c #543721",
"p 	c #3F2717",
"q 	c #412918",
"r 	c #503520",
"s 	c #422918",
"t 	c #462D1B",
"u 	c #4B311D",
"v 	c #5A4D45",
"w 	c #7D7B79",
"x 	c #7B7979",
"y 	c #211309",
"z 	c #3B2615",
"A 	c #573A23",
"B 	c #534B47",
"C 	c #3C2616",
"D 	c #462E1B",
"E 	c #563922",
"F 	c #583A23",
"G 	c #553822",
"H 	c #2D1A0E",
"I 	c #1E1007",
"J 	c #372113",
"K 	c #472D1B",
"L 	c #523620",
"M 	c #513520",
"N 	c #50351F",
"O 	c #513620",
"P 	c #543821",
"Q 	c #2B1B0E",
"R 	c #523621",
"S 	c #452B1A",
"T 	c #4E321E",
"U 	c #452C19",
"V 	c #4C3120",
"W 	c #61422E",
"X 	c #6E4C36",
"Y 	c #734F38",
"Z 	c #6D4B34",
"` 	c #5C3E28",
" .	c #452C1A",
"..	c #422818",
"+.	c #61422F",
"@.	c #886047",
"#.	c #9A6E52",
"$.	c #9B6E53",
"%.	c #8B6249",
"&.	c #664531",
"*.	c #574F4C",
"=.	c #3F2616",
"-.	c #3E2515",
";.	c #573A25",
">.	c #654530",
",.	c #805A42",
"'.	c #9E7054",
").	c #AC7B5D",
"!.	c #664631",
"~.	c #583B26",
"{.	c #4E331E",
"].	c #452B19",
"^.	c #402717",
"/.	c #644430",
"(.	c #896148",
"_.	c #9E7155",
":.	c #A8785B",
"<.	c #AD7C5E",
"[.	c #462C1A",
"}.	c #523623",
"|.	c #63432F",
"1.	c #5C3D27",
"2.	c #66452F",
"3.	c #77523C",
"4.	c #8D644B",
"5.	c #9E7459",
"6.	c #AC8367",
"7.	c #B28A6D",
"8.	c #865F47",
"9.	c #5C3E2C",
"0.	c #3A2314",
"a.	c #3C2415",
"b.	c #1F1007",
"c.	c #553821",
"d.	c #6B4A33",
"e.	c #8B6248",
"f.	c #4A301C",
"g.	c #6E4C34",
"h.	c #8C6249",
"i.	c #8C634A",
"j.	c #74513D",
"k.	c #816752",
"l.	c #AA9075",
"m.	c #BCA285",
"n.	c #AA9076",
"o.	c #563B2B",
"p.	c #362216",
"q.	c #2A180D",
"r.	c #382213",
"s.	c #1F1108",
"t.	c #76523A",
"u.	c #9C6F52",
"v.	c #815A42",
"w.	c #63432E",
"x.	c #563823",
"y.	c #75563F",
"z.	c #9F7A5F",
"A.	c #9B775D",
"B.	c #644B3A",
"C.	c #6B5D4C",
"D.	c #A8967C",
"E.	c #C2AD90",
"F.	c #A9967D",
"G.	c #140303",
"H.	c #1A0D06",
"I.	c #2E1B0F",
"J.	c #4A2F1C",
"K.	c #765239",
"L.	c #9C6F53",
"M.	c #9F7155",
"N.	c #885F46",
"O.	c #77604B",
"P.	c #A78E74",
"Q.	c #A48C73",
"R.	c #6A5948",
"S.	c #6B5D4D",
"T.	c #A9977D",
"U.	c #160807",
"V.	c #0B0402",
"W.	c #190C05",
"X.	c #392214",
"Y.	c #3E2616",
"Z.	c #432A18",
"`.	c #9B6F53",
" +	c #AD7C5D",
".+	c #9F7459",
"++	c #866A53",
"@+	c #8F7C66",
"#+	c #B19D82",
"$+	c #AF9C81",
"%+	c #8A7A64",
"&+	c #897964",
"*+	c #C2AD8F",
"=+	c #B09D82",
"-+	c #5E5243",
";+	c #352D24",
">+	c #454545",
",+	c #2A180C",
"'+	c #6D4B36",
")+	c #9A6D52",
"!+	c #AB9176",
"~+	c #BCA78B",
"{+	c #BBA78B",
"]+	c #B09C82",
"^+	c #BBA68A",
"/+	c #C1AC8F",
"(+	c #93826C",
"_+	c #5A4F41",
":+	c #787878",
"<+	c #4F4643",
"[+	c #372112",
"}+	c #896047",
"|+	c #B18669",
"1+	c #B8997C",
"2+	c #BDA487",
"3+	c #C0AA8D",
"4+	c #C1AD90",
"5+	c #C1AA8D",
"6+	c #BEA487",
"7+	c #655645",
"8+	c #29170C",
"9+	c #62422F",
"0+	c #805942",
"a+	c #AE7F61",
"b+	c #B1876A",
"c+	c #B79478",
"d+	c #BEA588",
"e+	c #B79578",
"f+	c #9B785F",
"g+	c #604838",
"h+	c #B18769",
"i+	c #B8987B",
"j+	c #BCA184",
"k+	c #BDA284",
"l+	c #B4967A",
"m+	c #A17C61",
"n+	c #917160",
"o+	c #8E837F",
"p+	c #28160B",
"q+	c #4B301F",
"r+	c #805941",
"s+	c #AD7F61",
"t+	c #A17B61",
"u+	c #7A5A45",
"v+	c #8D827E",
"w+	c #C7C5C4",
"x+	c #362112",
"y+	c #62432E",
"z+	c #9D725B",
"A+	c #A07969",
"B+	c #A17C70",
"C+	c #A07C70",
"D+	c #A07B6F",
"E+	c #9F7869",
"F+	c #9B715A",
"G+	c #855E46",
"H+	c #513828",
"I+	c #362012",
"J+	c #50341F",
"K+	c #6A4932",
"L+	c #7A5F58",
"M+	c #84737C",
"N+	c #887D8A",
"O+	c #887D8B",
"P+	c #81727B",
"Q+	c #735955",
"R+	c #5B3D2B",
"S+	c #331F11",
"T+	c #160300",
"U+	c #321B0B",
"V+	c #3F2514",
"W+	c #4B2F18",
"X+	c #615356",
"Y+	c #717185",
"Z+	c #787E97",
"`+	c #7C829A",
" @	c #82879D",
".@	c #787A8C",
"+@	c #595158",
"@@	c #160400",
"#@	c #52351C",
"$@	c #605256",
"%@	c #707185",
"&@	c #777E97",
"*@	c #787F98",
"=@	c #82889F",
"-@	c #9297A9",
";@	c #898B98",
">@	c #615B60",
",@	c #341F11",
"'@	c #190500",
")@	c #C8C7C6",
"!@	c #938D87",
"~@	c #6C5E4D",
"{@	c #72614E",
"]@	c #6E5A46",
"^@	c #604733",
"/@	c #57391F",
"(@	c #573922",
"_@	c #615256",
":@	c #717184",
"<@	c #7C8199",
"[@	c #83889E",
"}@	c #9094A6",
"|@	c #9EA2B0",
"1@	c #93949E",
"2@	c #676164",
"3@	c #492F1F",
"4@	c #543825",
"5@	c #8D837E",
"6@	c #948E88",
"7@	c #A0917E",
"8@	c #AA977D",
"9@	c #AB977D",
"0@	c #9B876E",
"a@	c #755E49",
"b@	c #563821",
"c@	c #605255",
"d@	c #9EA2B1",
"e@	c #A2A6B4",
"f@	c #92949F",
"g@	c #676064",
"h@	c #855D44",
"i@	c #8F8480",
"j@	c #8A8A8A",
"k@	c #685C4C",
"l@	c #C3AE90",
"m@	c #AE997D",
"n@	c #7F6850",
"o@	c #573817",
"p@	c #553619",
"q@	c #5C4F59",
"r@	c #666C8C",
"s@	c #7682A6",
"t@	c #8893B0",
"u@	c #919BB6",
"v@	c #919AB5",
"w@	c #80879E",
"x@	c #5E5964",
"y@	c #6C4A36",
"z@	c #996C50",
"A@	c #966B50",
"B@	c #5E4230",
"C@	c #AE997E",
"D@	c #7F6852",
"E@	c #57391D",
"F@	c #553720",
"G@	c #534B62",
"H@	c #4D6299",
"I@	c #5070B0",
"J@	c #5B78B4",
"K@	c #607CB6",
"L@	c #607BB5",
"M@	c #576C9E",
"N@	c #4A4964",
"O@	c #9A6D50",
"P@	c #5E4130",
"Q@	c #E5E5E5",
"R@	c #A1A1A1",
"S@	c #7B746B",
"T@	c #998973",
"U@	c #A99782",
"V@	c #AA998A",
"W@	c #988A86",
"X@	c #6F6674",
"Y@	c #4E4967",
"Z@	c #4D4767",
"`@	c #474F7E",
" #	c #36599D",
".#	c #2A60AE",
"+#	c #2A64B4",
"@#	c #2B66B7",
"##	c #2B65B6",
"$#	c #2C599F",
"%#	c #343C64",
"&#	c #5D402D",
"*#	c #855D43",
"=#	c #886550",
"-#	c #756660",
";#	c #ECECEC",
">#	c #C1C1C1",
",#	c #979593",
"'#	c #7A736A",
")#	c #696161",
"!#	c #6B687F",
"~#	c #616891",
"{#	c #4B619B",
"]#	c #3B5C9F",
"^#	c #3A5C9F",
"/#	c #35589D",
"(#	c #285199",
"_#	c #2254A0",
":#	c #265FAE",
"<#	c #2864B6",
"[#	c #2864B5",
"}#	c #25579E",
"|#	c #213662",
"1#	c #372418",
"2#	c #513723",
"3#	c #73645E",
"4#	c #959291",
"5#	c #FBFBFB",
"6#	c #F4F4F4",
"7#	c #E4E4E4",
"8#	c #CACBCB",
"9#	c #A4A4A4",
"0#	c #626262",
"a#	c #111C3E",
"b#	c #233468",
"c#	c #2F4784",
"d#	c #375596",
"e#	c #375B9F",
"f#	c #2C599E",
"g#	c #225095",
"h#	c #1B4383",
"i#	c #214383",
"j#	c #2D5295",
"k#	c #355B9F",
"l#	c #395C9F",
"m#	c #334F8A",
"n#	c #1C2F54",
"o#	c #2E2E2E",
"p#	c #565656",
"q#	c #828283",
"r#	c #ABABAB",
"s#	c #DDDDDE",
"t#	c #CCCCCC",
"u#	c #C1C1C2",
"v#	c #A4A4A5",
"w#	c #656565",
"x#	c #0F0A22",
"y#	c #2C2441",
"z#	c #3D3654",
"A#	c #494362",
"B#	c #444467",
"C#	c #2B3B65",
"D#	c #0F2F5D",
"E#	c #0A2650",
"F#	c #1F2A50",
"G#	c #33385D",
"H#	c #424265",
"I#	c #4A4666",
"J#	c #433E58",
"K#	c #272334",
"L#	c #565657",
"M#	c #AAAAAB",
"N#	c #B7B7B7",
"O#	c #CBCBCB",
"P#	c #EFEFF0",
"Q#	c #CFCFCF",
"R#	c #BBBCBC",
"S#	c #BABABB",
"T#	c #838384",
"U#	c #686666",
"V#	c #6E6766",
"W#	c #756C68",
"X#	c #796E69",
"Y#	c #766D69",
"Z#	c #6C6866",
"`#	c #6F6967",
" $	c #756C67",
".$	c #BCBCBD",
"+$	c #BBBBBB",
"@$	c #B5B5B6",
"#$	c #A6A5A4",
"$$	c #A7A5A4",
"%$	c #A8A6A4",
"&$	c #A5A4A3",
"*$	c #A4A4A3",
"=$	c #A6A4A4",
"-$	c #A8A5A4",
";$	c #A5A4A4",
">$	c #B6B6B7",
",$	c #F0F0F0",
"'$	c #D0D0D0",
"      . + @ @ @ @ @ @ # . . # @ @ + .                       ",
"      . + $ % & * = - ; > , ' ) ! ~ > . { ] ^               ",
"      . + ) / ( ( _ : < [ } | / 1 2 ~ 3 4 5 6               ",
"      { 4 7 8 9 0 a b c d e f g e - h * * i , ] j           ",
"      . + k % l m n o b p q r r s : t u u v w 5 ]           ",
"  j ] > x y = z 9 A A a u b a a b u a A A 9 z i , ] j       ",
"  ] 5 [ B C D 9 0 A A E a a E E a a E F A G 9 v i 5 ]       ",
". > [ H p u a A A A A A A A A A A A A A A A A 9 z w , 6 ^   ",
"+ x B p b a n A A A A A A A A A A A A A A A A G 9 v i 5 ]   ",
"@ I J K L A A E a a E A A A A E a M N O P E A F A u Q 4 {   ",
"@ I J K R A A a u u a A A A A a u K K u a A A F A u * 3 .   ",
"@ I J S T L L f S K L A A A A M U V W X Y Z ` L G g e [ > . ",
"@ I J s  .K K S ..K L A A A A N K +.@.#.$.%.&.b L r q *.[ + ",
"@ I J s  .S ..=.-.U O A A G L ;.>.,.'.).).'.,.!.~.{.].J I @ ",
"@ I J S T f S p ^.K L A A L u /.(._.:.<.<.:._.(./.[.^.J I @ ",
"@ I J K L a b }.|./.~.L G 1.2.3.4.5.6.7.7.6.5.8.9.0.a.J b.@ ",
"@ I J K L c.a d.e.(.&.f.L g.h.i.j.k.l.m.m.n.k.o.p.q.r.J s.@ ",
"@ I J S {.L E t.u._.v.w.x.y.z.A.B.C.D.E.E.F.C.G.@ H.I.B x + ",
"@ I J .. .J.a K.L.:.M.N./.O.P.Q.R.S.D.E.E.T.S.U.@ V.W.[ > . ",
"+ x B X.Y.Z.T Y `. +<..+++@+#+$+%+&+$+*+*+=+&+-+;+>+~ 5 ]   ",
". > [ ,+X.=.S '+)+).<.6.!+#+~+{+=+]+^+/+/+~+]+(+_+:+> ] j   ",
"  ] 5 x <+[+Y.W }+'.:.|+1+2+3+/+4+/+/+4+/+5+6+Q.7+3 .       ",
"  j ] > x 8+X.V 9+0+_.a+b+c+2+/+E.*+/+/+/+d+e+f+g+4 {       ",
"      ] 5 [ B [+Y.W }+'.:.h+i+j+j+j+j+k+j+l+m+n+o+5 ]       ",
"      j ] > x p+[+q+W r+'.s+|+7.7.7.7.7.7.t+u+v+w+6 ^       ",
"          . + b.x+-.^.y+e.z+A+B+B+C+D+E+F+G+H++ .           ",
"          { 4 I I+Y.=.J+K+L+M+N+O+O+N+P+Q+R+S+4 {           ",
"          { 4 T+U+V+].W+a X+Y+Z+Z+`+ @.@+@I+@@4 {           ",
"          . + I x+S {.#@c.$@%@&@*@=@-@;@>@,@'@+ .           ",
"      ^ 6 )@!@~@{@]@^@/@(@_@:@<@[@}@|@1@2@3@4@5@w+6 ^       ",
"      ] 5 6@7@8@9@0@a@/@b@c@Y+ @-@d@e@f@g@+.h@n+i@5 ]       ",
"      . j@k@D.l@l@m@n@o@p@q@r@s@t@u@v@w@x@y@z@A@B@j@.       ",
"      . 3 k@D.l@l@C@D@E@F@G@H@I@J@K@L@M@N@y@O@A@P@3 .       ",
"      Q@R@S@T@U@V@W@X@Y@Z@`@ #.#+#@###$#%#&#*#=#-#R@Q@      ",
"      ;#>#,#'#)#!#~#{#]#^#/#(#_#:#<#[#}#|#1#2#3#4#>#;#      ",
"  5#6#7#8#9#0#a#b#c#d#e#f#g#h#i#j#k#l#m#n#o#p#q#r#8#7#6#5#  ",
"  6#s#t#u#v#w#x#y#z#A#B#C#D#E#F#G#H#I#J#K#L## M#N#u#O#s#6#  ",
"  P#Q#R#S#r#T#U#V#W#X#Y#Z#w#w#U#`#W#X# $Z#T#r#R#.$S#+$Q#P#  ",
"  P#Q#+$S#@$r#9##$$$%$$$&$*$9#9#=$$$-$$$;$r#>$.$.$S#+$Q#P#  ",
"  6#s#O#>#R#R#R#R#R#R#R#R#R#R#R#R#R#R#R#R#R#R#R#R#>#O#s#6#  ",
"  5#6#7#8#R#R#.$.$.$.$.$.$.$.$.$.$.$.$.$.$.$R#+$R#8#7#6#5#  ",
"      ,$'$R#+$R#R#R#R#R#R#R#R#R#R#R#R#R#R#R#R#+$R#'$,$      "};
