/* XPM */
static char *b0c8bb52f7fd4b418248a0451ebae073cYB1twFpK8CeKC7H[] = {
/* columns rows colors chars-per-pixel */
"26 42 182 2 ",
"   c #509B66",
".  c #000000",
"X  c #0D0502",
"o  c #00030E",
"O  c #170600",
"+  c #150904",
"@  c #1B0E05",
"#  c #160706",
"$  c #1F1208",
"%  c #1C1007",
"&  c #000213",
"*  c #040A16",
"=  c #080C16",
"-  c #00001F",
";  c #0C0E19",
":  c #240C00",
">  c #2A0600",
",  c #330300",
"<  c #2C1501",
"1  c #24150A",
"2  c #27180C",
"3  c #2D1A0E",
"4  c #291407",
"5  c #341302",
"6  c #331B03",
"7  c #351C0F",
"8  c #361D10",
"9  c #39210E",
"0  c #232019",
"q  c #3D2515",
"w  c #342514",
"e  c #000D33",
"r  c #3D352B",
"t  c #392920",
"y  c #461E00",
"u  c #481B00",
"i  c #452200",
"p  c #4D2B00",
"a  c #452406",
"s  c #543000",
"d  c #5C3900",
"f  c #432A17",
"g  c #482B12",
"h  c #462D1C",
"j  c #492E1C",
"k  c #412716",
"l  c #4D321E",
"z  c #51351F",
"x  c #5B351E",
"c  c #653F1B",
"v  c #473226",
"b  c #523621",
"n  c #563923",
"m  c #593B24",
"M  c #5A3D2A",
"N  c #523B2C",
"B  c #623E2B",
"V  c #745404",
"C  c #554725",
"Z  c #444238",
"A  c #544B3D",
"S  c #594D3E",
"D  c #64432F",
"F  c #644431",
"G  c #6C4A33",
"H  c #6D4D39",
"J  c #75563E",
"K  c #724D37",
"L  c #000044",
"P  c #0C224E",
"I  c #292B4F",
"U  c #262744",
"Y  c #0E2C65",
"T  c #323C73",
"R  c #4C3947",
"E  c #403C5E",
"W  c #574E40",
"Q  c #59494B",
"!  c #5B5142",
"~  c #4B4056",
"^  c #544959",
"/  c #685747",
"(  c #7B5841",
")  c #755B4B",
"_  c #695B59",
"`  c #765950",
"'  c #75604C",
"]  c #746654",
"[  c #786A58",
"{  c #615D67",
"}  c #786761",
"|  c #7E717E",
" . c #86573D",
".. c #88593F",
"X. c #8F6145",
"o. c #8F644A",
"O. c #93664A",
"+. c #93674C",
"@. c #9E7155",
"#. c #9F7358",
"$. c #896E57",
"%. c #A16E51",
"&. c #A27256",
"*. c #A57559",
"=. c #A3795E",
"-. c #AC795A",
";. c #AC7759",
":. c #B17E5F",
">. c #A17665",
",. c #A97E62",
"<. c #A37966",
"1. c #B27F60",
"2. c #9E8C74",
"3. c #AD8366",
"4. c #AD8568",
"5. c #B48563",
"6. c #B58867",
"7. c #B1876A",
"8. c #B2886B",
"9. c #B88D6D",
"0. c #A58F71",
"q. c #AE967B",
"w. c #AA967C",
"e. c #BD9678",
"r. c #B99B7F",
"t. c #C09A7B",
"y. c #1B3E80",
"u. c #1D4386",
"i. c #004694",
"p. c #184F9D",
"a. c #234385",
"s. c #37599C",
"d. c #0057AB",
"f. c #1559AA",
"g. c #005AB1",
"h. c #005FB9",
"j. c #2758A3",
"k. c #2157A6",
"l. c #355FA8",
"z. c #0061BD",
"x. c #1D62B5",
"c. c #1263BA",
"v. c #2262B5",
"b. c #396EBE",
"n. c #435F9C",
"m. c #707285",
"M. c #6C759E",
"N. c #787E91",
"B. c #69708B",
"V. c #5A77B7",
"C. c #5B7BBB",
"Z. c #5578B8",
"A. c #4F6EAD",
"S. c #6675A4",
"D. c #827A8C",
"F. c #817581",
"G. c #857E90",
"H. c #79849F",
"J. c #7C87A5",
"K. c #AD9C82",
"L. c #B29E84",
"P. c #B5A186",
"I. c #BDA486",
"U. c #B6A389",
"Y. c #BEA68A",
"T. c #BDA88C",
"R. c #B6A592",
"E. c #BFAE91",
"W. c #838CA3",
"Q. c #9F98A4",
"!. c #989BA7",
"~. c #8F96AD",
"^. c #9CA5BC",
"/. c #A5A9B5",
"(. c #C0A78A",
"). c #C2AA8D",
"_. c #D0B88F",
"`. c #C2AE91",
"'. c #C5B194",
"]. c #C9B495",
"[. c #CFB997",
"{. c #D1BA99",
/* pixels */
"        . . . . . . . .     . . . .                 ",
"        . X 1 3 2 1 @ +     2 1 X .                 ",
"        . 1 h n b j q 3 . 1 l h % . . . . .         ",
"        . $ h n m n b q % 3 b b w $ 1 1 @ +         ",
"        . . X w b m n l q q b m b l b l q 3 + .     ",
"        + @ + 7 b m m n j j b m m m m n l q @ .     ",
"    . X 3 q h b n n m n n n n m n m m n m j $ .     ",
"    X 2 q l n m m n m n b n n n n n m m m b 3 .     ",
". + 3 k l n n m m m m n l j n M m n n m m b f 3 + . ",
". @ q b n m m n n b z j 8 q j b z n n m n n l q $ . ",
". 1 j n n m m n j f 8 6 3 5 6 9 j z n m m n m l 2 . ",
". 2 b m m n m z q k M F B C F F G G n l n m m z 2 . ",
". 2 b m m m m l : b O.&.#.@.@.&.&.+.m < z m m z 2 . ",
". 2 l m n n z l M ( *.1.1.-.:.1.5.*.J n z n m z 2 . ",
". 2 l m m l < M +.-.-.;.-.;.;.-.5.,.*.O.M k n b 2 . ",
". 2 l n n n m K +.,.4.8.8.7.8.3.&.&.1.&.M > h j 2 . ",
". @ k j j G O.X.B ) q.(.(.(.(.q./ G %.%.x . O 2     ",
". O 3 q a J 5.,.8 Z K.].`.`.].K.Z 5 =.7.$.S 0 .     ",
"    X O , ) L.q.v r q.].`.`.].K.r t 0.).Y.2.A .     ",
"    . 4 m $.T.I.[ ] L.].`.`.`.K.] [ L.].].q.S .     ",
"    . j X.8.T.`.L.L.T.`.).).`.T.L.L.`.).t.=.N .     ",
"    . v O.3.L.).`.].`.`.`.`.`.`.].`.).e.=...j .     ",
"        h H *.t.).'.`.`.`.`.`.`.].).t.>.H q         ",
"        . 7  .,.L.(.(.I.I.(.I.I.T.L.-. .8 .         ",
"        . O j ( ,.9.6.5.6.5.5.6.9.,.( j O .         ",
"        . . . n X.&.>.>.>.>.>.>.*.X.n . . .         ",
"        . + 4 g C ) >.W.D.D.D.F.` c g 4 X .         ",
"        . . 5 i a ~ B.M.W.W.W.N.Q u i 6 . .         ",
"        . . , i p Q m.W.!././.Q._ u u , . .         ",
"        W / ' ( d Q B.J.~.^.^.W._ d / ' / W         ",
"    . S 2.P.P.0.V R n.A.C.C.C.A.R V 0.I.P.2.W .     ",
"    . ! P.{.[.U.[ T v.c.g.g.h.f.T } I.[.{.L.! .     ",
"    . ! L.{._.R.M.d.v.v.p.p.c.c.d.M.U._.{.P.! .     ",
"    . A 2.U.R.Q.V.z.x.j.T y.j.x.z.V.Q.R.P.2.S .     ",
"      w C { S.C.b.x.k.u.P P u.k.v.b.C.S.{ C w       ",
"      . . L i.f.l.s.a.Y & & Y a.s.l.f.i.L . .       ",
"      . . - I E ^ E U e o o e U ~ ^ T I - . .       ",
"; ;   * o O 5 a s p : . o o . : p s i 5 O o =   ; ; ",
"; ; ; ; * + : < 6 6 @ . = = . @ 6 9 < : # * ; ; ; ; ",
"      ;                                     ;       ",
"      ; ;               ; ;               ; ;       ",
"      ; ; ; ; ; ; ; ; ; ; ; ; ; ; ; ; ; ; ; ;       "
};
