/* XPM */
static char * player_left_xpm[] = {
"30 42 475 2",
"  	c #509B66",
". 	c #DFDFDF",
"+ 	c #8B8B8B",
"@ 	c #000000",
"# 	c #8E8E8E",
"$ 	c #F8F8F8",
"% 	c #E9E9E9",
"& 	c #E0E0E0",
"* 	c #C3C3C3",
"= 	c #797979",
"- 	c #130904",
"; 	c #25160B",
"> 	c #817E7C",
", 	c #C4C3C3",
"' 	c #7E7D7C",
") 	c #221309",
"! 	c #28190C",
"~ 	c #2C1B0E",
"{ 	c #2C1C0E",
"] 	c #25170B",
"^ 	c #130A04",
"/ 	c #E8E8E8",
"( 	c #B4B4B4",
"_ 	c #8C8C8C",
": 	c #898989",
"< 	c #494949",
"[ 	c #26170B",
"} 	c #402A18",
"| 	c #625650",
"1 	c #7F7C7A",
"2 	c #7C7A7A",
"3 	c #58514D",
"4 	c #3D2616",
"5 	c #472E1B",
"6 	c #4B321D",
"7 	c #F9F9F9",
"8 	c #7D7A79",
"9 	c #28180C",
"0 	c #352112",
"a 	c #4D331E",
"b 	c #4D321E",
"c 	c #2C1A0E",
"d 	c #3E2717",
"e 	c #4C311D",
"f 	c #533721",
"g 	c #543822",
"h 	c #4E341F",
"i 	c #402918",
"j 	c #24160A",
"k 	c #7D7B79",
"l 	c #5A4D45",
"m 	c #4B311D",
"n 	c #462D1B",
"o 	c #422918",
"p 	c #503520",
"q 	c #412918",
"r 	c #3F2717",
"s 	c #543721",
"t 	c #563923",
"u 	c #4F341F",
"v 	c #3B2616",
"w 	c #120903",
"x 	c #3B2615",
"y 	c #573A23",
"z 	c #211309",
"A 	c #7B7979",
"B 	c #553822",
"C 	c #583A23",
"D 	c #563922",
"E 	c #462E1B",
"F 	c #3C2616",
"G 	c #534B47",
"H 	c #2D1A0E",
"I 	c #2B1B0E",
"J 	c #543821",
"K 	c #513620",
"L 	c #50351F",
"M 	c #513520",
"N 	c #523620",
"O 	c #472D1B",
"P 	c #372113",
"Q 	c #1E1007",
"R 	c #523621",
"S 	c #5C3E28",
"T 	c #6D4B34",
"U 	c #734F38",
"V 	c #6E4C36",
"W 	c #61422E",
"X 	c #4C3120",
"Y 	c #452C19",
"Z 	c #452B1A",
"` 	c #4E321E",
" .	c #574F4C",
"..	c #664531",
"+.	c #8B6249",
"@.	c #9B6E53",
"#.	c #9A6E52",
"$.	c #886047",
"%.	c #61422F",
"&.	c #422818",
"*.	c #452C1A",
"=.	c #452B19",
"-.	c #4E331E",
";.	c #583B26",
">.	c #664631",
",.	c #805A42",
"'.	c #9E7054",
").	c #AC7B5D",
"!.	c #654530",
"~.	c #573A25",
"{.	c #3E2515",
"].	c #3F2616",
"^.	c #402717",
"/.	c #462C1A",
"(.	c #644430",
"_.	c #896148",
":.	c #9E7155",
"<.	c #A8785B",
"[.	c #AD7C5E",
"}.	c #1F1007",
"|.	c #3C2415",
"1.	c #3A2314",
"2.	c #5C3E2C",
"3.	c #865F47",
"4.	c #9E7459",
"5.	c #AC8367",
"6.	c #B28A6D",
"7.	c #8D644B",
"8.	c #77523C",
"9.	c #66452F",
"0.	c #5C3D27",
"a.	c #63432F",
"b.	c #523623",
"c.	c #1F1108",
"d.	c #382213",
"e.	c #2A180D",
"f.	c #362216",
"g.	c #563B2B",
"h.	c #816752",
"i.	c #AA9076",
"j.	c #BCA285",
"k.	c #AA9075",
"l.	c #74513D",
"m.	c #8C634A",
"n.	c #8C6249",
"o.	c #6E4C34",
"p.	c #4A301C",
"q.	c #8B6248",
"r.	c #6B4A33",
"s.	c #553821",
"t.	c #2E1B0F",
"u.	c #1A0D06",
"v.	c #140303",
"w.	c #6B5D4C",
"x.	c #A9967D",
"y.	c #C2AD90",
"z.	c #A8967C",
"A.	c #644B3A",
"B.	c #9B775D",
"C.	c #9F7A5F",
"D.	c #75563F",
"E.	c #563823",
"F.	c #63432E",
"G.	c #815A42",
"H.	c #9C6F52",
"I.	c #76523A",
"J.	c #190C05",
"K.	c #0B0402",
"L.	c #160807",
"M.	c #6B5D4D",
"N.	c #A9977D",
"O.	c #6A5948",
"P.	c #A48C73",
"Q.	c #A78E74",
"R.	c #77604B",
"S.	c #885F46",
"T.	c #9F7155",
"U.	c #9C6F53",
"V.	c #765239",
"W.	c #4A2F1C",
"X.	c #454545",
"Y.	c #352D24",
"Z.	c #5E5243",
"`.	c #897964",
" +	c #B09D82",
".+	c #C2AD8F",
"++	c #AF9C81",
"@+	c #8A7A64",
"#+	c #B19D82",
"$+	c #8F7C66",
"%+	c #866A53",
"&+	c #9F7459",
"*+	c #AD7C5D",
"=+	c #9B6F53",
"-+	c #432A18",
";+	c #3E2616",
">+	c #392214",
",+	c #787878",
"'+	c #5A4F41",
")+	c #93826C",
"!+	c #B09C82",
"~+	c #BCA78B",
"{+	c #C1AC8F",
"]+	c #BBA68A",
"^+	c #BBA78B",
"/+	c #AB9176",
"(+	c #9A6D52",
"_+	c #6D4B36",
":+	c #2A180C",
"<+	c #655645",
"[+	c #BEA487",
"}+	c #C1AA8D",
"|+	c #C1AD90",
"1+	c #C0AA8D",
"2+	c #BDA487",
"3+	c #B8997C",
"4+	c #B18669",
"5+	c #896047",
"6+	c #372112",
"7+	c #4F4643",
"8+	c #604838",
"9+	c #9B785F",
"0+	c #B79578",
"a+	c #BEA588",
"b+	c #B79478",
"c+	c #B1876A",
"d+	c #AE7F61",
"e+	c #805942",
"f+	c #62422F",
"g+	c #29170C",
"h+	c #8E837F",
"i+	c #917160",
"j+	c #A17C61",
"k+	c #B4967A",
"l+	c #BCA184",
"m+	c #BDA284",
"n+	c #B8987B",
"o+	c #B18769",
"p+	c #C7C5C4",
"q+	c #8D827E",
"r+	c #7A5A45",
"s+	c #A17B61",
"t+	c #AD7F61",
"u+	c #805941",
"v+	c #4B301F",
"w+	c #28160B",
"x+	c #513828",
"y+	c #855E46",
"z+	c #9B715A",
"A+	c #9F7869",
"B+	c #A07B6F",
"C+	c #A07C70",
"D+	c #A17C70",
"E+	c #A07969",
"F+	c #9D725B",
"G+	c #62432E",
"H+	c #362112",
"I+	c #331F11",
"J+	c #5B3D2B",
"K+	c #735955",
"L+	c #81727B",
"M+	c #887D8A",
"N+	c #887D8B",
"O+	c #84737C",
"P+	c #7A5F58",
"Q+	c #6A4932",
"R+	c #50341F",
"S+	c #362012",
"T+	c #160400",
"U+	c #595158",
"V+	c #787A8C",
"W+	c #82879D",
"X+	c #7C829A",
"Y+	c #787E97",
"Z+	c #717185",
"`+	c #615356",
" @	c #4B2F18",
".@	c #3F2514",
"+@	c #321B0B",
"@@	c #160300",
"#@	c #190500",
"$@	c #341F11",
"%@	c #615B60",
"&@	c #898B98",
"*@	c #9297A9",
"=@	c #82889F",
"-@	c #787F98",
";@	c #777E97",
">@	c #707185",
",@	c #605256",
"'@	c #52351C",
")@	c #8D837E",
"!@	c #543825",
"~@	c #492F1F",
"{@	c #676164",
"]@	c #93949E",
"^@	c #9EA2B0",
"/@	c #9094A6",
"(@	c #83889E",
"_@	c #7C8199",
":@	c #717184",
"<@	c #615256",
"[@	c #573922",
"}@	c #57391F",
"|@	c #604733",
"1@	c #6E5A46",
"2@	c #72614E",
"3@	c #6C5E4D",
"4@	c #938D87",
"5@	c #C8C7C6",
"6@	c #8F8480",
"7@	c #855D44",
"8@	c #676064",
"9@	c #92949F",
"0@	c #A2A6B4",
"a@	c #9EA2B1",
"b@	c #605255",
"c@	c #563821",
"d@	c #755E49",
"e@	c #9B876E",
"f@	c #AB977D",
"g@	c #AA977D",
"h@	c #A0917E",
"i@	c #948E88",
"j@	c #8A8A8A",
"k@	c #5E4230",
"l@	c #966B50",
"m@	c #996C50",
"n@	c #6C4A36",
"o@	c #5E5964",
"p@	c #80879E",
"q@	c #919AB5",
"r@	c #919BB6",
"s@	c #8893B0",
"t@	c #7682A6",
"u@	c #666C8C",
"v@	c #5C4F59",
"w@	c #553619",
"x@	c #573817",
"y@	c #7F6850",
"z@	c #AE997D",
"A@	c #C3AE90",
"B@	c #685C4C",
"C@	c #5E4130",
"D@	c #9A6D50",
"E@	c #4A4964",
"F@	c #576C9E",
"G@	c #607BB5",
"H@	c #607CB6",
"I@	c #5B78B4",
"J@	c #5070B0",
"K@	c #4D6299",
"L@	c #534B62",
"M@	c #553720",
"N@	c #57391D",
"O@	c #7F6852",
"P@	c #AE997E",
"Q@	c #E5E5E5",
"R@	c #A1A1A1",
"S@	c #756660",
"T@	c #886550",
"U@	c #855D43",
"V@	c #5D402D",
"W@	c #343C64",
"X@	c #2C599F",
"Y@	c #2B65B6",
"Z@	c #2B66B7",
"`@	c #2A64B4",
" #	c #2A60AE",
".#	c #36599D",
"+#	c #474F7E",
"@#	c #4D4767",
"##	c #4E4967",
"$#	c #6F6674",
"%#	c #988A86",
"&#	c #AA998A",
"*#	c #A99782",
"=#	c #998973",
"-#	c #7B746B",
";#	c #ECECEC",
">#	c #C1C1C1",
",#	c #959291",
"'#	c #73645E",
")#	c #513723",
"!#	c #372418",
"~#	c #213662",
"{#	c #25579E",
"]#	c #2864B5",
"^#	c #2864B6",
"/#	c #265FAE",
"(#	c #2254A0",
"_#	c #285199",
":#	c #35589D",
"<#	c #3A5C9F",
"[#	c #3B5C9F",
"}#	c #4B619B",
"|#	c #616891",
"1#	c #6B687F",
"2#	c #696161",
"3#	c #7A736A",
"4#	c #979593",
"5#	c #FBFBFB",
"6#	c #F4F4F4",
"7#	c #E4E4E4",
"8#	c #CACBCB",
"9#	c #ABABAB",
"0#	c #828283",
"a#	c #565656",
"b#	c #2E2E2E",
"c#	c #1C2F54",
"d#	c #334F8A",
"e#	c #395C9F",
"f#	c #355B9F",
"g#	c #2D5295",
"h#	c #214383",
"i#	c #1B4383",
"j#	c #225095",
"k#	c #2C599E",
"l#	c #375B9F",
"m#	c #375596",
"n#	c #2F4784",
"o#	c #233468",
"p#	c #111C3E",
"q#	c #626262",
"r#	c #A4A4A4",
"s#	c #DDDDDE",
"t#	c #CBCBCB",
"u#	c #C1C1C2",
"v#	c #B7B7B7",
"w#	c #AAAAAB",
"x#	c #565657",
"y#	c #272334",
"z#	c #433E58",
"A#	c #4A4666",
"B#	c #424265",
"C#	c #33385D",
"D#	c #1F2A50",
"E#	c #0A2650",
"F#	c #0F2F5D",
"G#	c #2B3B65",
"H#	c #444467",
"I#	c #494362",
"J#	c #3D3654",
"K#	c #2C2441",
"L#	c #0F0A22",
"M#	c #656565",
"N#	c #A4A4A5",
"O#	c #CCCCCC",
"P#	c #EFEFF0",
"Q#	c #CFCFCF",
"R#	c #BBBBBB",
"S#	c #BABABB",
"T#	c #BCBCBD",
"U#	c #BBBCBC",
"V#	c #838384",
"W#	c #6C6866",
"X#	c #756C67",
"Y#	c #796E69",
"Z#	c #756C68",
"`#	c #6F6967",
" $	c #686666",
".$	c #766D69",
"+$	c #6E6766",
"@$	c #B6B6B7",
"#$	c #A5A4A4",
"$$	c #A7A5A4",
"%$	c #A8A5A4",
"&$	c #A6A4A4",
"*$	c #A4A4A3",
"=$	c #A5A4A3",
"-$	c #A8A6A4",
";$	c #A6A5A4",
">$	c #B5B5B6",
",$	c #F0F0F0",
"'$	c #D0D0D0",
"                      . + @ @ # . . # @ @ @ @ @ @ + .       ",
"              $ % & . * = - ; > , * ' ) ! ~ { ] ^ + .       ",
"              / ( _ : = < [ } | 1 2 3 4 5 6 6 } ; + .       ",
"          7 % , 8 ~ ~ 9 ) 0 a b 0 c d e f g h i j _ &       ",
"          % ( k l m m n 4 o p p q r e s t u v ] w + .       ",
"      7 % , 8 x h y y f m e f f e m f y y h x ! z A * % 7   ",
"      % ( 8 l h B y C D f f D D f f D y y g h E F G 2 ( %   ",
"  $ / , k x h y y y y y y y y y y y y y y y y f m r H 2 * . ",
"  % ( 8 l h B y y y y y y y y y y y y y y y y t f e r G A + ",
"  & _ I m y C y D J K L M f D y y y y D f f D y y N O P Q @ ",
"  . : ~ m y C y y f m O O m f y y y y f m m f y y R O P Q @ ",
". * 2 0 a B N S T U V W X Y M y y y y N O Z b N N ` Z P Q @ ",
"+ 2  .q p N e ..+.@.#.$.%.O L y y y y N O &.Z O O *.o P Q @ ",
"@ Q P =.-.;.>.,.'.).).'.,.!.~.N B y y K Y {.].&.Z *.o P Q @ ",
"@ Q P ^./.(._.:.<.[.[.<.:._.(.m N y y N O ^.r Z b ` Z P Q @ ",
"@ }.P |.1.2.3.4.5.6.6.5.4.7.8.9.0.B N ;.(.a.b.e f N O P Q @ ",
"@ c.P d.e.f.g.h.i.j.j.k.h.l.m.n.o.N p..._.q.r.f s.N O P Q @ ",
"+ A G t.u.@ v.w.x.y.y.z.w.A.B.C.D.E.F.G.:.H.I.D N -.Z P Q @ ",
". * 2 J.K.@ L.M.N.y.y.z.M.O.P.Q.R.(.S.T.<.U.V.f W.*.&.P Q @ ",
"  % ( = X.Y.Z.`. +.+.+++`.@+++#+$+%+&+[.*+=+U ` -+;+>+G A + ",
"  7 % * ,+'+)+!+~+{+{+]+!+ +^+~+#+/+5.[.).(+_+Z ].>+:+2 * . ",
"      . : <+P.[+}+{+|+{+{+|+{+1+2+3+4+<.'.5+W ;+6+7+A ( %   ",
"      & _ 8+9+0+a+{+{+{+.+y.{+2+b+c+d+:.e+f+X >+g+A * % 7   ",
"      % ( h+i+j+k+l+m+l+l+l+l+n+o+<.'.5+W ;+6+G 2 ( %       ",
"      $ / p+q+r+s+6.6.6.6.6.6.4+t+'.u+W v+6+w+A * % 7       ",
"          . + x+y+z+A+B+C+D+D+E+F+q.G+^.{.H+}.+ .           ",
"          & _ I+J+K+L+M+N+N+M+O+P+Q+R+].;+S+Q _ &           ",
"          & _ T+S+U+V+W+X+Y+Y+Z+`+f  @=..@+@@@_ &           ",
"          . + #@$@%@&@*@=@-@;@>@,@s.'@-.Z H+Q + .           ",
"      $ / p+)@!@~@{@]@^@/@(@_@:@<@[@}@|@1@2@3@4@5@/ $       ",
"      % ( 6@i+7@%.8@9@0@a@*@W+Z+b@c@}@d@e@f@g@h@i@( %       ",
"      . j@k@l@m@n@o@p@q@r@s@t@u@v@w@x@y@z@A@A@z.B@j@.       ",
"      . : C@l@D@n@E@F@G@H@I@J@K@L@M@N@O@P@A@A@z.B@: .       ",
"      Q@R@S@T@U@V@W@X@Y@Z@`@ #.#+#@###$#%#&#*#=#-#R@Q@      ",
"      ;#>#,#'#)#!#~#{#]#^#/#(#_#:#<#[#}#|#1#2#3#4#>#;#      ",
"  5#6#7#8#9#0#a#b#c#d#e#f#g#h#i#j#k#l#m#n#o#p#q#r#8#7#6#5#  ",
"  6#s#t#u#v#w## x#y#z#A#B#C#D#E#F#G#H#I#J#K#L#M#N#u#O#s#6#  ",
"  P#Q#R#S#T#U#9#V#W#X#Y#Z#`# $M#M#W#.$Y#Z#+$ $V#9#S#U#Q#P#  ",
"  P#Q#R#S#T#T#@$9##$$$%$$$&$r#r#*$=$$$-$$$;$r#9#>$S#R#Q#P#  ",
"  6#s#t#>#U#U#U#U#U#U#U#U#U#U#U#U#U#U#U#U#U#U#U#U#>#t#s#6#  ",
"  5#6#7#8#U#R#U#T#T#T#T#T#T#T#T#T#T#T#T#T#T#T#U#U#8#7#6#5#  ",
"      ,$'$U#R#U#U#U#U#U#U#U#U#U#U#U#U#U#U#U#U#R#U#'$,$      "};
