/* XPM */
static char * dead_xpm[] = {
"49 46 196 2",
"  	c #509B66",
". 	c #509B66",
"+ 	c #4A4A4A",
"@ 	c #2C2C2C",
"# 	c #1E1E1E",
"$ 	c #323232",
"% 	c #262626",
"& 	c #272727",
"* 	c #1B1B1B",
"= 	c #000000",
"- 	c #292929",
"; 	c #111111",
"> 	c #141414",
", 	c #402A18",
"' 	c #4A311D",
") 	c #452D1A",
"! 	c #362012",
"~ 	c #2E1E14",
"{ 	c #151515",
"] 	c #452F1D",
"^ 	c #49301C",
"/ 	c #050505",
"( 	c #0E0E0E",
"_ 	c #393939",
": 	c #4C321D",
"< 	c #573A23",
"[ 	c #523620",
"} 	c #402717",
"| 	c #2C190D",
"1 	c #4C321E",
"2 	c #563922",
"3 	c #313131",
"4 	c #080302",
"5 	c #0C0602",
"6 	c #4B311D",
"7 	c #3F2617",
"8 	c #462C1A",
"9 	c #29190D",
"0 	c #020202",
"a 	c #4C4C4C",
"b 	c #251B17",
"c 	c #1B0E06",
"d 	c #25160A",
"e 	c #28190C",
"f 	c #4F331F",
"g 	c #533721",
"h 	c #4B301D",
"i 	c #372313",
"j 	c #28190D",
"k 	c #3A3A3A",
"l 	c #2F2F2F",
"m 	c #2C1A0E",
"n 	c #1D1D1D",
"o 	c #261C17",
"p 	c #2B190D",
"q 	c #3E2717",
"r 	c #4C311D",
"s 	c #543822",
"t 	c #563A22",
"u 	c #3C2616",
"v 	c #392718",
"w 	c #4B4B4B",
"x 	c #1E1007",
"y 	c #4D311E",
"z 	c #2B2B2B",
"A 	c #472D1B",
"B 	c #50341F",
"C 	c #4D321E",
"D 	c #412817",
"E 	c #6A4934",
"F 	c #AA7A5C",
"G 	c #664631",
"H 	c #412818",
"I 	c #513520",
"J 	c #2C190E",
"K 	c #010101",
"L 	c #333333",
"M 	c #432A19",
"N 	c #422818",
"O 	c #543721",
"P 	c #664632",
"Q 	c #7E5841",
"R 	c #AC7B5D",
"S 	c #7B563F",
"T 	c #664531",
"U 	c #523621",
"V 	c #4E321E",
"W 	c #303030",
"X 	c #1E3555",
"Y 	c #1D4782",
"Z 	c #2F3960",
"` 	c #3C2716",
" .	c #3D2716",
"..	c #825B43",
"+.	c #77533C",
"@.	c #7A553D",
"#.	c #805A43",
"$.	c #916E56",
"%.	c #B69578",
"&.	c #8F6B53",
"*.	c #7F5A43",
"=.	c #2D1A0E",
"-.	c #331E11",
";.	c #12325E",
">.	c #2C65B5",
",.	c #455387",
"'.	c #583B23",
").	c #996D51",
"!.	c #9D7053",
"~.	c #AB7A5C",
"{.	c #695D4D",
"].	c #C1AC8F",
"^.	c #625747",
"/.	c #201108",
"(.	c #252525",
"_.	c #0D0D0D",
":.	c #323050",
"<.	c #224E97",
"[.	c #384070",
"}.	c #2C1C0E",
"|.	c #2A190D",
"1.	c #1F1007",
"2.	c #372213",
"3.	c #583A23",
"4.	c #9F654A",
"5.	c #9D674C",
"6.	c #986C51",
"7.	c #78533C",
"8.	c #9B6E53",
"9.	c #A8957C",
"0.	c #AF9C81",
"a.	c #A17D63",
"b.	c #94694F",
"c.	c #0D0502",
"d.	c #271D17",
"e.	c #2D2D2D",
"f.	c #3A2F4A",
"g.	c #1D438A",
"h.	c #323766",
"i.	c #010000",
"j.	c #9A5C42",
"k.	c #835C44",
"l.	c #AC7C5E",
"m.	c #B1886B",
"n.	c #444548",
"o.	c #393940",
"p.	c #0C0C0D",
"q.	c #1E4389",
"r.	c #0E2047",
"s.	c #060201",
"t.	c #BFAA8E",
"u.	c #C0AB8E",
"v.	c #8C7C67",
"w.	c #030101",
"x.	c #382213",
"y.	c #9A5D43",
"z.	c #A36D51",
"A.	c #593E2E",
"B.	c #140A06",
"C.	c #37373E",
"D.	c #646568",
"E.	c #131317",
"F.	c #0F0F10",
"G.	c #452F22",
"H.	c #3F364E",
"I.	c #264887",
"J.	c #0B1E42",
"K.	c #8D7D67",
"L.	c #362317",
"M.	c #422B1E",
"N.	c #915A43",
"O.	c #955E47",
"P.	c #9E6D55",
"Q.	c #A57A5F",
"R.	c #A1765B",
"S.	c #553E30",
"T.	c #0B0B0C",
"U.	c #141518",
"V.	c #656669",
"W.	c #525259",
"X.	c #101011",
"Y.	c #26272C",
"Z.	c #4E4E4F",
"`.	c #444447",
" +	c #3B3C41",
".+	c #2A2B2F",
"++	c #1F2023",
"@+	c #A3937D",
"#+	c #7B7060",
"$+	c #16171A",
"%+	c #2E2F34",
"&+	c #747475",
"*+	c #3E3F44",
"=+	c #505151",
"-+	c #737374",
";+	c #4D4D4E",
"              . . . . . . . .                 . . . . . . . .                 . . . . . . . .     ",
"              . . . . . . . .                 . . . . . . . .                 . . . . . . . .     ",
"              . . . . . . . .                 . . . . . . . .                 . . . . . . . .     ",
"              . . . . . . . .                 . . . . . . . .                 . . . . . . . .     ",
"              . . . . . . . .                 . . . . . . . .                 . . . . . . . .     ",
"              . . . . . . . .                 . . . . . . . .                 . . . . . . . .     ",
"              . . . . . . . .                 . . . . . . . .                 . . . . . . . .     ",
"              . . . . . . . .                 . . . . . . . .                 . . . . . . . .     ",
". . . . . . .                 . . . . . . . .                 . . . . . . . .                 . . ",
". . . . . . .                 . . . . . . . .                 . . . . . . . .                 . . ",
". . . . . . .                 . . . . . . . .                 . . . . . . . .                 . . ",
". . . . . . .                 . . . . . . . .                 . . . . . . . .                 . . ",
". . . . . . .                 . . . . . . . .                 . . . . . . . .                 . . ",
". . . . . . .                 . . . . . . . .                 . . . . . . . .                 . . ",
". . . . . . .                 . . . . . . . .                 . . . . . . . .                 . . ",
". . . . . . .                 . . . + @ @ @ @ # # $   % # # & . . . . . . . .                 . . ",
"              . . . . . . . .       * = = = = = = - . ; = = >                 . . . . . . . .     ",
"              . . . . . . . .       * = , ' ' ) ! ~ { ] ^ = / ( ( ( _         . . . . . . . .     ",
"              . . . . . . . .       * = : < < [ } | = 1 2 = = = = = 3         . . . . . . . .     ",
"              . . . . . . . .       * = 4 5 < < 2 6 7 [ < 7 8 2 2 2 9 0       . . . . . . . .     ",
"              . . . . . . . .   a $ b c d e < < < f 8 g < 8 h < < < i j $ k   . . . . . . . .     ",
"              . . . . . . . .   l = m } [ < < < < < < < < < < < < < < 2 = (   . . . . . . . .     ",
"              . . . . . . . . n o p q r s < < < < < < < < < < < < < < t u v n w . . . . . . .     ",
"              . . . . . . . . = x } y < < < < < < < < < < < < < < < < < < ' = z . . . . . . .     ",
". . . . . . .                 = x } y < < < A r < < < < < A A A B < < < < ' = n               . . ",
". . . . . . .                 = x } y < < < } A < < < < < } } } C < < < < ' = n               . . ",
". . . . . . .                 = x } } D D D } A < < < < < } E F F F G H < I 7 J K L           . . ",
". . . . . . .     a $ $ $ $ $ = x } M 8 N } } A < < < O g P Q R R R S T U V } p = $           . . ",
". . . . . . .     W = = = = = = x } y < 8 } } A < < < 8 M R R R R R R F } } } p = $           . . ",
". . . . . . .   n X Y Z ` ` ` `  .} y < f y ..+.C [ < @...#.$.%.%.%.&.*.=.-.} p = $           . . ",
". . . . . . .   = ;.>.,.< < < < [ } y < < '.R ).} C < !.~.= {.].].].^.= = /.} p = $           . . ",
". . . . . . (._.! :.<.[.A g < }.|.1.2.A g 3.4.5.6.7.A 8.R 9.0.].].].a.b.= c.1.d.e.+           . . ",
"            _.= } f.g.h.} [ < i.= = m } [ 3.j.4.R k.} 8.l.].].].].].m.F = = = z . . . . . . .     ",
"        n.o.p.= } f.g.g.q.r.s.t.u.u.v.w.x.N j.j.y.z.~.R R l.l.l.l.l.A.B.= p.C.D.. . . . . . .     ",
"        n.o.E.F.G.H.I.I.I.J.= ].].].K.= L.M.N.O.O.P.Q.Q.Q.Q.Q.R.R.R.S.T.T.U.o.V.. . . . . . .     ",
"        n.o.o.W.W.W.W.W.W.X.= ].].].K.= Y.o.o.W.W.W.W.W.W.W.W.o.o.o.o.o.o.o.o.V.. . . . . . .     ",
"        Z.`. +W.W.W.W.W.W..+++@+@+@+#+$+%+o.o.W.W.W.W.W.W.W.W.o.o.o.o.o.o. +`.&+. . . . . . .     ",
"            *+W.W.W.W.W.W.W.W.o.o.o.o.o.o.o.o.W.W.W.W.W.W.W.W.o.o.o.o.o.o.*+  . . . . . . . .     ",
"            =+-+-+-+-+-+-+-+-+;+;+;+;+;+;+;+;+-+-+-+-+-+-+-+-+;+;+;+;+;+;+=+  . . . . . . . .     ",
"              . . . . . . . .                 . . . . . . . .                 . . . . . . . .     ",
". . . . . . .                 . . . . . . . .                 . . . . . . . .                 . . ",
". . . . . . .                 . . . . . . . .                 . . . . . . . .                 . . ",
". . . . . . .                 . . . . . . . .                 . . . . . . . .                 . . ",
". . . . . . .                 . . . . . . . .                 . . . . . . . .                 . . ",
". . . . . . .                 . . . . . . . .                 . . . . . . . .                 . . ",
". . . . . . .                 . . . . . . . .                 . . . . . . . .                 . . "};
