/* XPM */
static char * pl1_xpm[] = {
"26 36 299 2",
"  	c #509B66",
". 	c #509B66",
"+ 	c #333333",
"@ 	c #252525",
"# 	c #353535",
"$ 	c #292929",
"% 	c #181818",
"& 	c #393939",
"* 	c #131313",
"= 	c #000000",
"- 	c #161616",
"; 	c #2A2A2A",
"> 	c #3B3B3B",
", 	c #0D0D0D",
"' 	c #030303",
") 	c #060201",
"! 	c #4F341F",
"~ 	c #462F1D",
"{ 	c #2F1D11",
"] 	c #3A2314",
"^ 	c #4C321E",
"/ 	c #3C2716",
"( 	c #444444",
"_ 	c #34302F",
": 	c #190D06",
"< 	c #130903",
"[ 	c #140A04",
"} 	c #573A23",
"| 	c #4A311D",
"1 	c #100603",
"2 	c #341F12",
"3 	c #432918",
"4 	c #543822",
"5 	c #563A22",
"6 	c #533721",
"7 	c #3F2917",
"8 	c #040404",
"9 	c #24160A",
"0 	c #472D1B",
"a 	c #412817",
"b 	c #513520",
"c 	c #402717",
"d 	c #4E331E",
"e 	c #513620",
"f 	c #303030",
"g 	c #242424",
"h 	c #362314",
"i 	c #3D2817",
"j 	c #4D321E",
"k 	c #4A2F1C",
"l 	c #523620",
"m 	c #352213",
"n 	c #301D10",
"o 	c #26150A",
"p 	c #291F1A",
"q 	c #8A8A8A",
"r 	c #221209",
"s 	c #7F7F7F",
"t 	c #323232",
"u 	c #111111",
"v 	c #3E2A1A",
"w 	c #472E1B",
"x 	c #563922",
"y 	c #543821",
"z 	c #50341F",
"A 	c #3E2616",
"B 	c #331F11",
"C 	c #1B1A1A",
"D 	c #3A3A3A",
"E 	c #452D1A",
"F 	c #482E1B",
"G 	c #040201",
"H 	c #0C0C0C",
"I 	c #422918",
"J 	c #452B19",
"K 	c #4C4C4C",
"L 	c #372F2C",
"M 	c #1B0E06",
"N 	c #472F1B",
"O 	c #593B25",
"P 	c #714E36",
"Q 	c #6B4A33",
"R 	c #654531",
"S 	c #4C3120",
"T 	c #442A19",
"U 	c #432A19",
"V 	c #533621",
"W 	c #462C1A",
"X 	c #24140A",
"Y 	c #60412E",
"Z 	c #AC7B5D",
"` 	c #6A4934",
" .	c #4D311E",
"..	c #7C5740",
"+.	c #8C634A",
"@.	c #90664C",
"#.	c #79553F",
"$.	c #452C1A",
"%.	c #4C311D",
"&.	c #442B19",
"*.	c #5E4330",
"=.	c #77543F",
"-.	c #9C7054",
";.	c #976B52",
">.	c #78563F",
",.	c #6D4D38",
"'.	c #4B301D",
").	c #2D1A0E",
"!.	c #1C0F06",
"~.	c #573B2C",
"{.	c #624C3B",
"].	c #8C7862",
"^.	c #BDA386",
"/.	c #9E8870",
"(.	c #604F3D",
"_.	c #5B3E2D",
":.	c #9C6F53",
"<.	c #8C6248",
"[.	c #4E321E",
"}.	c #93684E",
"|.	c #94694E",
"1.	c #25150B",
"2.	c #1F0F0B",
"3.	c #5D5041",
"4.	c #C1AC8F",
"5.	c #6C5D4D",
"6.	c #2A1913",
"7.	c #AD7E61",
"8.	c #9A6F54",
"9.	c #503421",
"0.	c #4B301F",
"a.	c #A37457",
"b.	c #A37558",
"c.	c #573A22",
"d.	c #482D1B",
"e.	c #262626",
"f.	c #2D1F19",
"g.	c #A7947A",
"h.	c #8C6249",
"i.	c #313131",
"j.	c #060606",
"k.	c #736452",
"l.	c #897964",
"m.	c #907F69",
"n.	c #7A6B58",
"o.	c #B09C82",
"p.	c #7F6C58",
"q.	c #9B755B",
"r.	c #382213",
"s.	c #341F11",
"t.	c #B8A489",
"u.	c #B59275",
"v.	c #A27457",
"w.	c #AD8A6E",
"x.	c #B79679",
"y.	c #3F382C",
"z.	c #A79479",
"A.	c #BDA488",
"B.	c #B49074",
"C.	c #B08567",
"D.	c #825B43",
"E.	c #73503A",
"F.	c #372113",
"G.	c #26160B",
"H.	c #281E19",
"I.	c #A47559",
"J.	c #B08668",
"K.	c #302B22",
"L.	c #A09075",
"M.	c #BB9F83",
"N.	c #5A3C2A",
"O.	c #301C0F",
"P.	c #484848",
"Q.	c #414141",
"R.	c #3D2A1F",
"S.	c #5F4433",
"T.	c #936C53",
"U.	c #A97D62",
"V.	c #AE8164",
"W.	c #AE8062",
"X.	c #835C44",
"Y.	c #553826",
"Z.	c #3C2415",
"`.	c #110703",
" +	c #1D1715",
".+	c #525252",
"++	c #483123",
"@+	c #A07256",
"#+	c #A27660",
"$+	c #A57B6A",
"%+	c #A47964",
"&+	c #A17356",
"*+	c #76523B",
"=+	c #3B2415",
"-+	c #190C05",
";+	c #5F5C6B",
">+	c #787E97",
",+	c #6F6F82",
"'+	c #070707",
")+	c #6D6A75",
"!+	c #8E93A5",
"~+	c #7E849B",
"{+	c #51351F",
"]+	c #4B311D",
"^+	c #202020",
"/+	c #7B7981",
"(+	c #A4A8B5",
"_+	c #858A9F",
":+	c #2D2D2D",
"<+	c #141414",
"[+	c #90674E",
"}+	c #8A6249",
"|+	c #9CA1AF",
"1+	c #999DAD",
"2+	c #A28E75",
"3+	c #AA967C",
"4+	c #A7957C",
"5+	c #8B7C68",
"6+	c #4B4B4B",
"7+	c #1D1D1D",
"8+	c #9F7155",
"9+	c #A3A8B5",
"0+	c #A3A7B4",
"a+	c #B7A286",
"b+	c #97876F",
"c+	c #3F3F3F",
"d+	c #384B81",
"e+	c #2C65B5",
"f+	c #3D5B9B",
"g+	c #2B2B2C",
"h+	c #121214",
"i+	c #8E654C",
"j+	c #886048",
"k+	c #362012",
"l+	c #314A80",
"m+	c #285DAA",
"n+	c #37579A",
"o+	c #4D4A6A",
"p+	c #9E8F89",
"q+	c #A6978B",
"r+	c #A6937A",
"s+	c #897A66",
"t+	c #4A4A4A",
"u+	c #5E5F63",
"v+	c #525259",
"w+	c #060607",
"x+	c #1C457F",
"y+	c #2C64B4",
"z+	c #1D438A",
"A+	c #224F99",
"B+	c #204991",
"C+	c #1A3E81",
"D+	c #1B1B1F",
"E+	c #707072",
"F+	c #777878",
"G+	c #616265",
"H+	c #57585C",
"I+	c #292A2E",
"J+	c #1E1F22",
"K+	c #303658",
"L+	c #48507E",
"M+	c #3D4B7D",
"N+	c #38497C",
"O+	c #102B5D",
"P+	c #143468",
"Q+	c #1B437C",
"R+	c #3A4B7D",
"S+	c #373A64",
"T+	c #303159",
"U+	c #5C5D61",
"V+	c #424346",
"W+	c #626262",
"X+	c #49494C",
"Y+	c #393940",
"Z+	c #2A2B2F",
"`+	c #3B2615",
" @	c #3F2617",
".@	c #422B19",
"+@	c #121216",
"@@	c #8F8F8F",
"#@	c #36363D",
"$@	c #404146",
"%@	c #524A49",
"&@	c #5D514D",
"*@	c #564C4A",
"=@	c #534A4A",
"-@	c #403736",
";@	c #493D39",
">@	c #413736",
",@	c #3E3535",
"'@	c #2C2D32",
")@	c #313238",
"!@	c #4B4B4D",
"~@	c #3B3C41",
"{@	c #3A3A40",
"]@	c #3A3B41",
"^@	c #56575C",
"/@	c #909090",
"(@	c #404145",
"              . . . + @ @ # . $ % % % % % % & . . . ",
"              . . . * = = - . - = = = = = = ; . . . ",
"            > , , , ' ) ! ~ , { ] ^ ! ! / = ; . . . ",
"          ( _ : : : < [ } | 1 2 3 4 5 6 7 = ; . . . ",
"          8 9 } } } 0 a } b c d } } e = = = ; . . . ",
"      f g h i } } } j k } 6 k l } } 6 m n o p # q . ",
"      * = 6 } } } } } } } } } } } } } } d c r = s . ",
"  t u v w x } } } } } } } } } } } } } } y z A B C $ ",
". D = E } } } } } } } } } } } } } } } } } } F c G H ",
". D = E } } } } d I I I } } } } } J J } } } F c G H ",
"K L M N } 6 O P Q R S a } } } } } T U V V V W c G H ",
"= X c ! } 3 Y Z Z Z ` a } } } } } T c c c c c c G H ",
"= X c F  ...+.Z Z Z @.#. .z } } } T c c $.%.&.c G H ",
"= X c c c *.=.-.Z ;.>.,.c F } } } T c c '.} F c G H ",
"= X c ).!.~.{.].^./.(._.:.<.} [.W }.|.V 4 } F c G H ",
"8 1.A X = 2.3.4.4.4.5.6.7.8.x 9.0.a.b.} c.x d.c G H ",
"  e.= = = 2.3.4.4.4.5.f.4.g.c h.Z Z b.} d c c c G * ",
"  i.u j.= k.l.4.4.4.m.n.4.o.p.q.Z Z a.z k c r.s.C $ ",
"      * = t.4.4.4.4.4.4.4.4.4.u.Z Z v.c c c r = s . ",
"      * = w.x.y.z.4.4.4.4.A.B.C.Z D.E.c F.G.H.# q . ",
"      * = I.J.K.L.4.4.4.4.M.Z Z Z N.c c O.= ; . . . ",
"      P.Q.R.S.T.U.V.V.V.V.W.Z X.Y.U Z.`. +Q..+. . . ",
"          8 ++@+#+$+$+$+$+%+&+*+c c =+= -     . . . ",
"          8 -+c ;+>+>+>+>+,+} '.c c =+= -     . . . ",
". . . . . '+-+c )+!+~+>+>+,+} {+]+I =+= ^+. .       ",
". . . . . '+-+c /+(+_+>+>+,+} } } T =+= ^+. .       ",
". . . :+<+[+}+c /+(+|+1+>+,+} } } 2+3+4+5+<+6+      ",
". . . 7+= I.8+c /+9+9+0+>+,+} } } a+4.4.b+= c+      ",
". . . 7+= I.8+c d+e+e+e+e+f+} } } a+4.4.b+= c+      ",
". . . g+h+i+j+k+l+e+e+e+m+n+o+o+o+p+q+r+s+h+t+      ",
". . . u+v+w+= = x+e+e+y+z+A+e+e+e+B+C+= D+v+E+      ",
". F+G+H+v+I+J+= K+L+M+N+O+P+Q+R+L+S+T+= D+v+U+V+W+  ",
"  X+Y+Y+Y+Y+Z+= `+} 0  @= = = .@} T =+= +@Y+Y+v+@@. ",
"  X+Y+Y+Y+Y+#@$@%@&@*@=@$@$@$@-@;@>@,@'@)@Y+Y+v+@@. ",
"  !@~@{@Y+Y+Y+v+v+v+v+v+v+v+v+Y+Y+Y+Y+Y+Y+Y+]@^@/@. ",
"      (@Y+Y+Y+v+v+v+v+v+v+v+v+Y+Y+Y+Y+Y+Y+Y+!@. . . "};
