/* XPM */
static char * pl2_xpm[] = {
"27 36 284 2",
"  	c #509B66",
". 	c #509B66",
"+ 	c #525252",
"@ 	c #252525",
"# 	c #717171",
"$ 	c #646464",
"% 	c #181818",
"& 	c #242424",
"* 	c #3A3A3A",
"= 	c #000000",
"- 	c #535353",
"; 	c #0F0F0F",
"> 	c #121212",
", 	c #080808",
"' 	c #3E2817",
") 	c #4F341F",
"! 	c #211610",
"~ 	c #1F140E",
"{ 	c #3A2314",
"] 	c #442C19",
"^ 	c #4E341F",
"/ 	c #4D4D4D",
"( 	c #424242",
"_ 	c #1E140D",
": 	c #190D06",
"< 	c #160B05",
"[ 	c #100603",
"} 	c #462E1B",
"| 	c #573A23",
"1 	c #201208",
"2 	c #201108",
"3 	c #432918",
"4 	c #4D321E",
"5 	c #543821",
"6 	c #523620",
"7 	c #1B1B1B",
"8 	c #4D331E",
"9 	c #50341F",
"0 	c #402717",
"a 	c #452B19",
"b 	c #2C1B0E",
"c 	c #454545",
"d 	c #342519",
"e 	c #352213",
"f 	c #513620",
"g 	c #533721",
"h 	c #4A2F1C",
"i 	c #4B301D",
"j 	c #4C311D",
"k 	c #402A18",
"l 	c #26150A",
"m 	c #281910",
"n 	c #393939",
"o 	c #323232",
"p 	c #573A22",
"q 	c #352012",
"r 	c #202020",
"s 	c #131313",
"t 	c #2D2015",
"u 	c #472E1B",
"v 	c #4F351F",
"w 	c #492F1C",
"x 	c #331F11",
"y 	c #291A11",
"z 	c #111111",
"A 	c #656565",
"B 	c #040404",
"C 	c #28190C",
"D 	c #513520",
"E 	c #29170C",
"F 	c #3B3B3B",
"G 	c #563922",
"H 	c #422918",
"I 	c #4E331E",
"J 	c #3C3C3C",
"K 	c #333333",
"L 	c #1D1009",
"M 	c #301E10",
"N 	c #553822",
"O 	c #533621",
"P 	c #6B4A32",
"Q 	c #704D36",
"R 	c #654531",
"S 	c #5A3C2A",
"T 	c #4E321E",
"U 	c #3E2616",
"V 	c #462C1A",
"W 	c #9C6F54",
"X 	c #AC7B5D",
"Y 	c #92684D",
"Z 	c #432A19",
"` 	c #4D311E",
" .	c #6D4B35",
"..	c #845D44",
"+.	c #A47558",
"@.	c #A07256",
"#.	c #664630",
"$.	c #492E1C",
"%.	c #855D45",
"&.	c #78543D",
"*.	c #1C0F06",
"=.	c #442E21",
"-.	c #5B3E2E",
";.	c #AD9479",
">.	c #BDA386",
",.	c #A48B71",
"'.	c #886048",
").	c #9C6F53",
"!.	c #61422B",
"~.	c #77533C",
"{.	c #6C4A33",
"].	c #020202",
"^.	c #3C2415",
"/.	c #372113",
"(.	c #150906",
"_.	c #21100D",
":.	c #AE9A80",
"<.	c #C1AC8F",
"[.	c #A18F76",
"}.	c #8D664D",
"|.	c #AD7E61",
"1.	c #63442D",
"2.	c #543822",
"3.	c #4B301F",
"4.	c #835C44",
"5.	c #755139",
"6.	c #9D8B73",
"7.	c #594535",
"8.	c #60402D",
"9.	c #595959",
"0.	c #0D0D0D",
"a.	c #574B3D",
"b.	c #786957",
"c.	c #B4A085",
"d.	c #AD997F",
"e.	c #AA977D",
"f.	c #87755F",
"g.	c #886F59",
"h.	c #724F38",
"i.	c #3D2516",
"j.	c #341F11",
"k.	c #291B11",
"l.	c #8E7E68",
"m.	c #BDA588",
"n.	c #6B4934",
"o.	c #846953",
"p.	c #B49074",
"q.	c #BEA68A",
"r.	c #B69477",
"s.	c #B38D70",
"t.	c #976B50",
"u.	c #79543E",
"v.	c #543725",
"w.	c #26160B",
"x.	c #281A11",
"y.	c #232323",
"z.	c #7E5942",
"A.	c #AE8163",
"B.	c #886047",
"C.	c #555555",
"D.	c #414141",
"E.	c #403229",
"F.	c #3C281D",
"G.	c #9E755A",
"H.	c #AE8164",
"I.	c #AC7C5E",
"J.	c #A17256",
"K.	c #553826",
"L.	c #4C3120",
"M.	c #24140A",
"N.	c #110804",
"O.	c #474747",
"P.	c #8F654C",
"Q.	c #A07257",
"R.	c #A57B6A",
"S.	c #A27458",
"T.	c #966A4F",
"U.	c #1F1007",
"V.	c #010101",
"W.	c #392213",
"X.	c #45322E",
"Y.	c #787E97",
"Z.	c #5B453C",
"`.	c #636363",
" +	c #2E2E2E",
".+	c #6A5040",
"++	c #77543F",
"@+	c #503524",
"#+	c #483632",
"$+	c #8E93A5",
"%+	c #878CA1",
"&+	c #4B311D",
"*+	c #796956",
"=+	c #867763",
"-+	c #3D3D3D",
";+	c #4B4B4B",
">+	c #4B3B36",
",+	c #A4A8B5",
"'+	c #979BAB",
")+	c #AB977D",
"!+	c #C0AB8E",
"~+	c #161616",
"{+	c #A1A5B2",
"]+	c #9A9EAE",
"^+	c #868BA0",
"/+	c #85705A",
"(+	c #AA967C",
"_+	c #BBA78A",
":+	c #7D5942",
"<+	c #AB7A5D",
"[+	c #644431",
"}+	c #A3A8B5",
"|+	c #8A8FA3",
"1+	c #947F66",
"2+	c #BFAA8D",
"3+	c #282828",
"4+	c #3F2E36",
"5+	c #2C65B5",
"6+	c #544046",
"7+	c #868787",
"8+	c #717173",
"9+	c #333335",
"0+	c #121214",
"a+	c #332014",
"b+	c #352934",
"c+	c #2A60AE",
"d+	c #285DAA",
"e+	c #4B4C73",
"f+	c #4D4A6A",
"g+	c #45405F",
"h+	c #38314F",
"i+	c #1A1628",
"j+	c #777878",
"k+	c #767677",
"l+	c #525259",
"m+	c #0E0E0E",
"n+	c #05162F",
"o+	c #23529C",
"p+	c #1D438A",
"q+	c #2B62B1",
"r+	c #2657A3",
"s+	c #0A2049",
"t+	c #5C5D61",
"u+	c #626266",
"v+	c #5D5D62",
"w+	c #0D101E",
"x+	c #48507E",
"y+	c #434E7E",
"z+	c #384A7D",
"A+	c #25396B",
"B+	c #102B5D",
"C+	c #1A4179",
"D+	c #27467C",
"E+	c #404571",
"F+	c #34355F",
"G+	c #181831",
"H+	c #56575C",
"I+	c #616265",
"J+	c #757576",
"K+	c #3A3A40",
"L+	c #393940",
"M+	c #0A0A0A",
"N+	c #120903",
"O+	c #23150A",
"P+	c #46464A",
"Q+	c #2F3035",
"R+	c #2F2D32",
"S+	c #493D39",
"T+	c #5A4F4B",
"U+	c #534A4A",
"V+	c #494548",
"W+	c #404146",
"X+	c #484547",
"Y+	c #5D514D",
"Z+	c #594E4B",
"`+	c #3F3636",
" @	c #322F33",
".@	c #2D2E33",
"+@	c #3C3D41",
"@@	c #3A3B40",
"#@	c #3B3C41",
"$@	c #48484B",
"%@	c #4F4F50",
"&@	c #3E3F43",
"    . . . . . . . . + @ @ @ # $ @ @ % % % % & . . .   ",
"    . . . . . . . . * = = = $ - = = = = = = ; . . .   ",
"    . . . . . > , , , = ' ) ! ~ { ] ) ) ^ = ; . . .   ",
"    . . . / ( _ : : < [ } | 1 2 3 4 | 5 6 = ; . . .   ",
"    . . . 7 = 8 | | 9 0 ) | 3 a | | | b = = ; . . .   ",
"    . c & d e f | | g h 6 | i j | | | k e l m & n .   ",
"    . o = ' | | | | | | | | | | | | | | p 0 q = r .   ",
"    s t u v | | | | | | | | | | | | | | | 9 w x y z A ",
". . B C | | | | | | | | | | | | | | | | | | D 0 E = F ",
". . B C | | | | G H H H 9 | | | | I H 6 | | D 0 E = F ",
"J K L M | N O P Q R S 0 ) | | | | T 0 I O O T 0 E = F ",
"z = U V | j 0 W X X Y 0 ) | | | | T 0 0 0 0 0 0 E = F ",
"z = U Z `  ...+.X X @...#.` G | | T 0 0 0 j $.0 E = F ",
"z = U 0 0 %.X X X X X X &.0 N | | T 0 0 0 | D 0 E = F ",
"z = U { *.=.-.;.>.>.,.-.'.).!.5 V ~.).{.O | D 0 E = F ",
"s ].^./.= (._.:.<.<.[._.}.|.1.2.3.4.X 5.| G 9 0 E = F ",
"    ].= = (._.:.<.<.[._.6.<.7.8.X X X 5.p 0 0 0 E = 9.",
"    s 0.= a.b.c.<.<.d.b.e.<.f.g.X X X h.9 0 i.j.k.z $ ",
"    . o = l.<.<.<.<.<.<.<.<.<.m.X X X n.0 0 q = r .   ",
"    . o = o.p.q.<.<.<.<.<.<.r.s.X t.u.v.0 w.x.y.n .   ",
"    . o = z.X >.<.<.<.<.<.<.A.X X B.0 0 0 = ; . . .   ",
"    . C.D.E.F.G.H.H.H.H.H.H.I.J.K.L.0 M.N.D.O.. . .   ",
"    . . . 7 = P.Q.R.R.R.R.R.S.T.0 0 0 U.V.. . . . .   ",
"    . . . 7 = W.X.Y.Y.Y.Y.Y.Z.g 0 0 0 U.V.. . . . .   ",
". .   `. +.+++@+#+$+%+Y.Y.Y.Z.N &+V 0 *+=+ +-+      . ",
". .   ;+= z.X R >+,+'+Y.Y.Y.Z.| | T 0 )+!+= ~+      . ",
". .   ;+= z.X R >+,+{+]+^+Y.Z.| | /+(+_+!+= ~+      . ",
". .   ;+V.:+<+[+>+}+}+}+|+Y.Z.| | 1+!+!+2+V.~+      . ",
". .       3+= W.4+5+5+5+5+5+6+| | T 0 U.V.          . ",
". .   7+8+9+0+a+b+5+5+5+c+d+e+f+f+g+h+i+V.8+j+      . ",
". .   k+l+l+l+m+n+5+5+5+o+p+q+5+5+r+p+s+V.l+t+      . ",
". . u+v+l+l+l+m+w+x+y+z+A+B+C+D+x+E+F+G+V.l+H+I+J+  . ",
"    K+L+L+L+L+M+N+| 9 0 l = = O+| T 0 U.= L+L+L+P+.   ",
"    K+L+L+L+L+Q+R+S+T+U+V+W+W+X+Y+Z+`+ @.@L+L+L+P+.   ",
"    +@@@L+L+L+L+L+L+l+l+l+l+l+l+l+l+L+L+L+L+K+#@$@.   ",
"    . %@L+L+L+L+L+L+l+l+l+l+l+l+l+l+L+L+L+L+&@. . .   "};
