/* XPM */
static char * pu1_xpm[] = {
"27 36 214 2",
"  	c #509B66",
". 	c #509B66",
"+ 	c #3D3D3D",
"@ 	c #030303",
"# 	c #040404",
"$ 	c #424242",
"% 	c #050505",
"& 	c #070707",
"* 	c #3E3E3E",
"= 	c #323232",
"- 	c #282828",
"; 	c #000000",
"> 	c #170D05",
", 	c #28180C",
"' 	c #403631",
") 	c #4C4C4C",
"! 	c #1C0F07",
"~ 	c #1F1108",
"{ 	c #0D0602",
"] 	c #161616",
"^ 	c #382414",
"/ 	c #573A23",
"( 	c #2F1E0F",
"_ 	c #3F2617",
": 	c #472D1B",
"< 	c #24160A",
"[ 	c #3A3A3A",
"} 	c #1B1B1B",
"| 	c #2B1C12",
"1 	c #2C1A0E",
"2 	c #3C2616",
"3 	c #3E2817",
"4 	c #4A301C",
"5 	c #3D2616",
"6 	c #4C311D",
"7 	c #4F341F",
"8 	c #4B311D",
"9 	c #2A2A2A",
"0 	c #301C0F",
"a 	c #402717",
"b 	c #543821",
"c 	c #482E1B",
"d 	c #573A22",
"e 	c #3B2615",
"f 	c #3F3F3F",
"g 	c #3F2917",
"h 	c #533621",
"i 	c #563922",
"j 	c #543721",
"k 	c #523620",
"l 	c #4D331E",
"m 	c #362113",
"n 	c #101010",
"o 	c #646464",
"p 	c #4B4B4B",
"q 	c #3D3B3B",
"r 	c #0A0402",
"s 	c #432C19",
"t 	c #462C1A",
"u 	c #211D1C",
"v 	c #707070",
"w 	c #828282",
"x 	c #545454",
"y 	c #221209",
"z 	c #4E331E",
"A 	c #553822",
"B 	c #321E10",
"C 	c #444282",
"D 	c #422818",
"E 	c #432918",
"F 	c #3F438C",
"G 	c #0D0D0D",
"H 	c #24160D",
"I 	c #3A2314",
"J 	c #3E2516",
"K 	c #513520",
"L 	c #533721",
"M 	c #493E6E",
"N 	c #3C4490",
"O 	c #4B3C61",
"P 	c #442B19",
"Q 	c #262626",
"R 	c #4B301D",
"S 	c #453E73",
"T 	c #353F8F",
"U 	c #3B356A",
"V 	c #4E321E",
"W 	c #483238",
"X 	c #3B3464",
"Y 	c #3F2A37",
"Z 	c #3F2616",
"` 	c #2F1B0F",
" .	c #2C1C12",
"..	c #181818",
"+.	c #363636",
"@.	c #3D2516",
"#.	c #131313",
"$.	c #77543E",
"%.	c #986C51",
"&.	c #543725",
"*.	c #8D644A",
"=.	c #92674D",
"-.	c #865F47",
";.	c #AB7A5C",
">.	c #5B3D2A",
",.	c #432919",
"'.	c #412817",
").	c #9E7155",
"!.	c #A37558",
"~.	c #141414",
"{.	c #A17357",
"].	c #AC7B5D",
"^.	c #8C6249",
"/.	c #6A4934",
"(.	c #4E3627",
"_.	c #8F664B",
":.	c #9C6F53",
"<.	c #966A50",
"[.	c #6E4C37",
"}.	c #825B43",
"|.	c #A27457",
"1.	c #996D51",
"2.	c #442F21",
"3.	c #202020",
"4.	c #513620",
"5.	c #694830",
"6.	c #875F45",
"7.	c #5F4029",
"8.	c #845D43",
"9.	c #6F4D34",
"0.	c #777777",
"a.	c #5C5C5C",
"b.	c #4D3D33",
"c.	c #412C20",
"d.	c #523721",
"e.	c #543822",
"f.	c #452F20",
"g.	c #443024",
"h.	c #696969",
"i.	c #875F47",
"j.	c #593C29",
"k.	c #442A19",
"l.	c #9F7155",
"m.	c #A47559",
"n.	c #1D1D1D",
"o.	c #53445D",
"p.	c #383962",
"q.	c #494F7B",
"r.	c #474368",
"s.	c #463E5F",
"t.	c #3F426C",
"u.	c #35345D",
"v.	c #9E725D",
"w.	c #494E85",
"x.	c #204991",
"y.	c #2C65B5",
"z.	c #224F99",
"A.	c #1D438A",
"B.	c #2C64B4",
"C.	c #2555A0",
"D.	c #9D7367",
"E.	c #3D3E3E",
"F.	c #222327",
"G.	c #594133",
"H.	c #654634",
"I.	c #2F4382",
"J.	c #1E458C",
"K.	c #15356C",
"L.	c #0D2450",
"M.	c #224F98",
"N.	c #5C464D",
"O.	c #624533",
"P.	c #2E2E32",
"Q.	c #4B4B4D",
"R.	c #393940",
"S.	c #121216",
"T.	c #1A3E81",
"U.	c #0C234E",
"V.	c #1D4289",
"W.	c #071A3D",
"X.	c #050506",
"Y.	c #404145",
"Z.	c #8F8F8F",
"`.	c #535359",
" +	c #3B2520",
".+	c #3F2823",
"++	c #301E1E",
"@+	c #020617",
"#+	c #30323C",
"$+	c #4E4E54",
"%+	c #030718",
"&+	c #1E141A",
"*+	c #180D0A",
"=+	c #3A3A40",
"-+	c #4A4A4C",
";+	c #525259",
">+	c #1A1A1E",
",+	c #0B0B0C",
"'+	c #3C281C",
")+	c #412B1E",
"!+	c #332118",
"~+	c #101011",
"{+	c #38393E",
"]+	c #111112",
"^+	c #281C17",
"/+	c #463023",
"(+	c #1E1310",
"_+	c #0E0E10",
":+	c #49494C",
"<+	c #949494",
"[+	c #656669",
"}+	c #3D3D42",
"|+	c #444548",
"1+	c #525253",
"      . . . . . . . .                 . . . . . . . . ",
"      . . . . . + @ @ # $   % # # # # @ & . . . . . . ",
"      . . * = = - ; > , ' ) ! ~ , , , { # . . . . . . ",
"      . . ] ; ; ; ; ^ / ( ; _ : / / / < # . . . . . . ",
"      [ } | 1 2 3 3 4 / 5 1 6 7 / 8 3 > # . . . . . . ",
"      9 ; 0 a b / / / / c a d / / e ; ; # . . . . . . ",
". . . f ; g h i / / / / j h / / / k l 5 m n 9         ",
". o p q r s / / / / / / / / / / / / / t _ r u v w     ",
". x ; y a z / / / / / / / / / / / / / / A a B ; [     ",
". x ; y a z / / / / / / / / / / / / / / A a B ; [     ",
". x ; y a z / / / / / / / / / / / / / / A a B ; [     ",
". x ; y a z / / / / / / / / / / / / / / A a B ; [     ",
". x ; y a z / / / / / / / / / / C / / / A a B ; [     ",
". x ; y a D E A / / / / / / / / F / / : E a B ; [     ",
"  w G H I J a K L L A / / / / M N O L P a a B ; Q . . ",
"      9 ; 0 a a a a R / / / / S T U a a a a B ; Q . . ",
"      9 ; 0 a a a a t V V V V W X Y a a Z `  ...+.. . ",
"      9 ; 0 a a a a a a a a a a a a a a @.; #.. . . . ",
"      9 ; $.%.&.a a a a a a a a a a a *.=.; #.. . . . ",
"      9 ; -.;.>.,.,.D a a a a '.,.,.,.).!.; ~.. . . . ",
"      . . ] ; {.].].^.a a a a /.].].].(.# . . . . . . ",
"      . . ] ; _.:.].<.[.[.[.[.}.].|.1.2.# . . . . . . ",
". . .     3.; 4.5.].].].].].].].].6./ < &             ",
". . .     3.; 4.7.8.8.8.8.8.8.8.8.9./ < &             ",
". . .     3.; 4./ / / / / / / / / / / < &             ",
". . .     3.; 4./ / / / / / / / / / / < &             ",
". . . 0.a.b.c.d.A / / / / / / / / i e.f.g.a.h.        ",
". . . f ; i.].j.k./ / / / / / / / 6 a l.m.; n.        ",
". . . f ; i.].o.p.q.q.q.r.s.q.q.q.t.u.v.m.; n.        ",
". . . f ; i.].w.x.y.y.y.z.A.B.y.y.C.A.D.m.; n.        ",
"      E.F.G.H.I.J.z.z.z.K.L.M.z.z.x.A.N.O.F.P.. . . . ",
"      Q.R.S.; T.A.A.A.A.U.; V.A.A.A.A.W.X.R.Y.. . . . ",
"  Z.`.R.R.S.;  +.+.+++@+#+$+%+&+.+.+.+*+X.R.R.=+-+. . ",
"  Z.;+R.R.>+,+'+)+)+!+~+{+;+]+^+/+/+/+(+_+R.R.R.:+. . ",
"  Z.;+R.R.R.R.R.R.R.R.;+;+;+;+;+;+;+;+R.R.R.R.R.:+. . ",
"  <+[+Y.R.R.R.R.R.R.R.;+;+;+;+;+;+;+;+R.R.R.}+|+1+. . "};
