/* XPM */
static char *a22fbaf619b441a9dc1b04b44129a512UbaQOTcg8wDdhTIc[] = {
/* columns rows colors chars-per-pixel */
"46 62 10 1 ",
"  c #509B66",
". c #0C0E19",
"X c #21110D",
"o c #082B0C",
"O c #342319",
"+ c #503625",
"@ c #114517",
"# c #347B2C",
"$ c #755338",
"% c #53A03B",
/* pixels */
"                  ooooo                       ",
"                 o#%%%#oo  oooo               ",
"           oooo o#%%%%%%#oo#%%%o              ",
"          o#%%#o#%%%%%%%%%#%%%%%oooo          ",
"         o#%%%%%#%%%%%%%%%#%%%%%o%%#o         ",
"         o#%%%%%%#%%%%%%%%%%%%%%%%%%#o        ",
"      ooo@@%%%%%%%%%%%%%%%%%%%%%%%%%#o        ",
"     o##@%%#%%%%%%%%%%%%%%%%%%%%%%%%@@o       ",
"    o#%%#%%%%%%%%%%%%%%%%%%%%%%%%%%@%%o       ",
"    o%%%%%%%%%%%%%%%%%%%%%%%%%%%%%%%%%#o      ",
"   o#%%%%%%%%%%%%%%%%%%%%%%%#%%%%%%%%%#o      ",
"  o###%%%%%%%%%%%%%%##@#%#@#%%%%%%%%%%%#o     ",
"  o###%%%%%%%%%%%%%%%%#@@@##%%%%%%%%%%%#o     ",
" o###%%%%%%%%%%%%%%%%%%%#@#%%%%%%%%%%%%%o     ",
" o#%#%%%%%%%%%%%%%%%%%%%%#%%%%%%%%%%%%%%#o    ",
" o%%%#%%@%%%%%%%%%%%%%%%%%%%%%%%%%%%%%%%%o    ",
" o#%%##@@%%%%%%%%%%%%%%%%%%%%%%%%%%%%%%%%o    ",
" o####@@#%%%%%%%%%%%%%%%%%%%%%%%%%%%%%%%#o    ",
"  o@@@@###%%%%%%%%%%%%%%%%%%%%%%%%%%%%%%o     ",
" o@@#@#%%#%%%%%%%%%%%%%%%%%%%%%%%%%%%%%#o     ",
"o@%%#@#%%%#%%%%%%%%%%%%%%%%%%%%%%%%%%%%%#o    ",
"o#%%#@##%%%%%%%%%%%%%%%%%%%%%%%%%%%%%%%%#oo   ",
"#%%##@@#%%%%%%%%%%%%%%%%%%%%%%%%%%%%#%%%%#o   ",
"#%%%%#@#%%%%%%#%%%%%%%%%%%%%%%%%%%%##@%%%#o   ",
"#%%%%%##%%%%%%#@%%%%%%%%%%%%%%%%%%%@@@@###o   ",
"@#%%%%#@@%%%%###@@#%%%%##%%%%%%%%%%%@%%##o    ",
"o@##%%%%@@%%#%%%%@@#%%###%%%%%%%%%%%#%%%#o    ",
"o@@@@#%%%@@##%%%%%#@####%%%%%%%%%%%%%#%%##o   ",
" o@#%@#%%###%%%%%%%###%%%%%%%%%%%%%%%#####o   ",
" o@%%####@#%%%%%%%%%#%%%%%%%%%%%%%%%%####@o   ",
"o@@%%%#@@@#%%#%%%%%##%%%%%%%%%%%%#%%@####@@o  ",
"o@#@##@@%#@###%%%%%###%%%%%%%%%%%%@@#####@@o  ",
"o#%%@@@%%%%##%%%%%#%%##%#%%@%%%#%%@%%###@@@o  ",
"o#%%#@@%%%%%#%%#%%%%%%%%%@@#%%#%###%%%###@@o  ",
"o@##@@@@%#%%#####%%%%%%%%%@###%%%###%%####@o  ",
" o@@@@#@@@#########%%%%%%%###%%%%######@##o   ",
"  o@@#%%@####@##%%#%%%%%%%#####%%@##@##@@@o   ",
"  o@o@%%#%###@@%%%#@%%%%%%%##@##@####@@@@o    ",
"   ooo@#%%%#%#@%%##@%%%%#%%#@@@@@####@@@o     ",
"    o@@@%%@%%%#####@#%%######@o@@##@@@oo      ",
"    o@@@@@#%%%#@##@#######@##@o@@@@@@@o       ",
"     o@@o@####@o@@@####@##@@@@ooo@@@@@o       ",
"      ooo@@@@@@oo@@###@@@@@@@oooooo@@o        ",
"        o@@@@@ooo@@@@@@o@@@@ooooooooo         ",
"         ooooooooo@@@@ooooooOX..oo....        ",
"          ..XXOO+oooooOOOOOOOX.........       ",
"        ...X$+O+++OO++OOOO+OO+X.........      ",
"       ...X$$OO+O+O$$++OO++OO$X.........      ",
"      ....X$XO$++O$$$$+O+$++O+$X.........     ",
"     .....XXO$$$+O$$$$+++$$+OO+OX........     ",
"     ......X$$+++X+$+++$+$$+OO$$OX.......     ",
"     .....X$$$$+OX$$$+$$$$$+OO+$$X.......     ",
"     .....X$$$$+X+$$$+$O$$$$+XO+$X.......     ",
"     .....X$$$+OX$$$$$OO+$+$$XX++X.......     ",
"     .....X+++OX+$$$+$OXO+$$$$X..........     ",
"     ..........X$$$+++OXO+$$$$$X........      ",
"      .........X$$$++OXXX++$$$+X........      ",
"      .........X+++++O...X+++++X.......       ",
"       ................................       ",
"       ...............................        ",
"        .............................         ",
"         ...........................          "
};
