/* XPM */
static char * foe_xpm[] = {
"27 27 34 1",
" 	c #509B66",
".	c #509B66",
"+	c #23213D",
"@	c #D69A4E",
"#	c #F3D040",
"$	c #F2CE40",
"%	c #ABA5B0",
"&	c #6B6779",
"*	c #585469",
"=	c #945848",
"-	c #4E3E41",
";	c #704644",
">	c #37344E",
",	c #C08B4C",
"'	c #DABB40",
")	c #EFC942",
"!	c #24223E",
"~	c #2B283D",
"{	c #F2F2F0",
"]	c #554B3E",
"^	c #2B2944",
"/	c #E2B048",
"(	c #EDC443",
"_	c #5C586D",
":	c #39364F",
"<	c #888292",
"[	c #715644",
"}	c #E6B846",
"|	c #E3B248",
"1	c #7F7A8A",
"2	c #39303F",
"3	c #DDA74B",
"4	c #E0AD49",
"5	c #ECC343",
"            .............. ",
"            .++++.......++ ",
"   ++     +++@##$++..%++@@&",
"  *==+   +@########++-@@@@&",
" +;=+  >##############@@@@&",
"+++++  ,###############@@@&",
"  +++  '###@+++++@######@+ ",
" +++  +)##++++++++++####@+ ",
"!!;+  +##++++++++++++####+ ",
"  ;+  +#+++#++++~{+++]###+ ",
"  ;+  +#+++{++++^{+++]###+ ",
"..;+..+#+++{++++^{+++]###+.",
"..;+..+#+++{++++^#+++]###+.",
"..;+..+#@++++++++++++/##(+.",
".._=+.+)#@++++++++++####+ .",
"...++..'##@++++++++#####+ .",
"...+=+.,###@++++++#####@+ .",
"....++.:@###@@@@@#####@+  .",
"...<[[[[+@}##########)|[1 .",
"...+@@@@+@##@@@@@#######+ .",
"...+@@@2@############3##@+.",
"....++++#############3###+.",
"....+++:#############3###+.",
"....+=+:4############5444+.",
"    +=+ ++@##########5+++. ",
"    +++   ++++++++++++.... ",
"            .............. "};
