/* XPM */
static char * Untitled_xpm[] = {
"23 18 145 2",
"  	c #509B66",
". 	c #F3F3F3",
"+ 	c #A5A4A4",
"@ 	c #2B2121",
"# 	c #271C1B",
"$ 	c #261816",
"% 	c #24140F",
"& 	c #23130E",
"* 	c #EEEEEE",
"= 	c #C9C9C9",
"- 	c #9EA0A3",
"; 	c #7F848B",
"> 	c #7E8289",
", 	c #6E696B",
"' 	c #564032",
") 	c #523722",
"! 	c #533926",
"~ 	c #C6C5C5",
"{ 	c #787575",
"] 	c #8E9299",
"^ 	c #A8B0B9",
"/ 	c #A7AEB7",
"( 	c #918D90",
"_ 	c #705644",
": 	c #6B4A2E",
"< 	c #6C4C33",
"[ 	c #A3A2A2",
"} 	c #8B837F",
"| 	c #655042",
"1 	c #706A6B",
"2 	c #787C82",
"3 	c #777A81",
"4 	c #676364",
"5 	c #513C2F",
"6 	c #4E3420",
"7 	c #4E3624",
"8 	c #4F3624",
"9 	c #21110D",
"0 	c #20100D",
"a 	c #4F3523",
"b 	c #1F0C06",
"c 	c #1E0B05",
"d 	c #1F0E09",
"e 	c #20100C",
"f 	c #4D311A",
"g 	c #120000",
"h 	c #100000",
"i 	c #170000",
"j 	c #1C0B09",
"k 	c #1C0D0B",
"l 	c #4F3623",
"m 	c #6B4D37",
"n 	c #5E4E48",
"o 	c #4E4D50",
"p 	c #4D4C4F",
"q 	c #443D3D",
"r 	c #37261D",
"s 	c #352115",
"t 	c #362217",
"u 	c #22120E",
"v 	c #402611",
"w 	c #634F45",
"x 	c #89888C",
"y 	c #9CA2AB",
"z 	c #9BA1A9",
"A 	c #868284",
"B 	c #684F3E",
"C 	c #634328",
"D 	c #64462D",
"E 	c #64462F",
"F 	c #65462F",
"G 	c #22120D",
"H 	c #301700",
"I 	c #554846",
"J 	c #8B8E9A",
"K 	c #A4ADBC",
"L 	c #A3ABBA",
"M 	c #8D8B92",
"N 	c #70574B",
"O 	c #6F5854",
"P 	c #6E5A5A",
"Q 	c #674D42",
"R 	c #644837",
"S 	c #2A1501",
"T 	c #40373A",
"U 	c #646B82",
"V 	c #7682A0",
"W 	c #75819E",
"X 	c #68687A",
"Y 	c #5B4A4B",
"Z 	c #636379",
"` 	c #5E647F",
" .	c #424050",
"..	c #342D35",
"+.	c #281402",
"@.	c #393136",
"#.	c #565F7B",
"$.	c #657397",
"%.	c #647296",
"&.	c #5B5C72",
"*.	c #54464B",
"=.	c #606681",
"-.	c #596687",
";.	c #313A52",
">.	c #141C30",
",.	c #3A3137",
"'.	c #58617C",
").	c #677598",
"!.	c #677497",
"~.	c #5D5D73",
"{.	c #55464B",
"].	c #606580",
"^.	c #5C698A",
"/.	c #414B64",
"(.	c #343C52",
"_.	c #5D5D74",
":.	c #60657F",
"<.	c #647294",
"[.	c #5D6A8A",
"}.	c #5B6787",
"|.	c #3A3237",
"1.	c #5D5E74",
"2.	c #534244",
"3.	c #5A5769",
"4.	c #60647E",
"5.	c #3F3938",
"6.	c #382D27",
"7.	c #3C343A",
"8.	c #58607C",
"9.	c #5D5F75",
"0.	c #523D37",
"a.	c #513B33",
"b.	c #53403E",
"c.	c #949393",
"d.	c #767372",
"e.	c #413C42",
"f.	c #513B34",
"g.	c #4F331A",
"h.	c #4F341E",
"i.	c #BABABA",
"j.	c #46434A",
"k.	c #555E7B",
"l.	c #513C34",
"m.	c #50341F",
"n.	c #503625",
"    . + @ # $ % & & & & & & & % $ # @ + .     ",
"  * = - ; > , ' ) ! ! ! ! ! ) ' , > ; - = *   ",
". ~ { ] ^ / ( _ : < < < < < : _ ( / ^ ] { ~ . ",
"[ } | 1 2 3 4 5 6 7 7 7 7 7 6 5 4 3 2 1 | } [ ",
"& ! < 8 9 0 9 9 9 9 9 9 9 9 9 9 9 0 9 8 < ! & ",
"& ! < a b c d e 0 0 0 0 0 0 0 e d c b a < ! & ",
"& ! < f g h i j k k k k k k k j i h g f < ! & ",
"& l m n o p q r s t t t t t s r q p o n m l & ",
"u v w x y z A B C D E F E D C B A z y x w v u ",
"G H I J K L M N O P Q R Q P O N M L K J I H G ",
"9 S T U V W X Y Z `  ... .` Z Y X W V U T S 9 ",
"9 +.@.#.$.%.&.*.=.-.;.>.;.-.=.*.&.%.$.#.@.+.9 ",
"9 +.,.'.).!.~.{.].^./.(./.^.].{.~.!.).'.,.+.9 ",
"9 +.,.'.).!._.{.:.<.[.}.[.<.:.{._.!.).'.,.+.9 ",
"9 +.|.'.).!.1.2.3.4.:.:.:.4.3.2.1.!.).'.|.+.9 ",
"5.6.7.8.).!.9.0.a.b.b.b.b.b.a.0.9.!.).8.7.6.5.",
"c.d.e.#.).!.9.f.g.h.h.h.h.h.g.f.9.!.).#.e.d.c.",
"i.c.j.k.).!.9.l.m.n.n.n.n.n.m.l.9.!.).k.j.c.i."};
