/* XPM */
static char * p_down_xpm[] = {
"16 29 50 1",
" 	c #509B66",
".	c #2E2E2E",
"+	c #131313",
"@	c #585858",
"#	c #464646",
"$	c #747474",
"%	c #FDD8C6",
"&	c #F2AF7D",
"*	c #B98768",
"=	c #DCC7CC",
"-	c #040000",
";	c #0B0100",
">	c #D3BEBB",
",	c #000300",
"'	c #040005",
")	c #F9EDFF",
"!	c #000903",
"~	c #000209",
"{	c #F8F4F1",
"]	c #000700",
"^	c #24112F",
"/	c #E0E0E0",
"(	c #D4D4D4",
"_	c #F4D0BE",
":	c #FCEBEB",
"<	c #E0DCDC",
"[	c #FBE6E6",
"}	c #A7A7A9",
"|	c #E3C0C0",
"1	c #E2CACA",
"2	c #E3C2C2",
"3	c #ADA1A3",
"4	c #FADEDE",
"5	c #E4BEBE",
"6	c #EF7474",
"7	c #F18E8E",
"8	c #F08F8F",
"9	c #F19393",
"0	c #E1D8D8",
"a	c #2D112F",
"b	c #FEF7F7",
"c	c #E2CECE",
"d	c #EF8484",
"e	c #F5B2B2",
"f	c #F7C7C7",
"g	c #EF7777",
"h	c #555553",
"i	c #373735",
"j	c #96442C",
"k	c #AEAEC5",
"       ...      ",
"     +.@@.....  ",
"    ..@@.#@@#.  ",
"  +.#@@##@@#.+  ",
" +..@@#@@@#...+ ",
" .#@$@@@@@@@$#. ",
" .@@$$#@$$@@@@..",
" .@@@##@@@#@@@@.",
" +@@####@@##@@#+",
" +###.####.###++",
" +##%%.##.%%##+ ",
" +#.%%%%%%%%.#+ ",
" +&.&**%%**&.&+ ",
" +&.&=-%%;>&.&+ ",
"  ,'&)!%%~{&']  ",
"   '*%%%%%%*,   ",
"    ''*&&*''    ",
"   ^/(_%%%:<^   ",
"  ^//[[[[[:</^  ",
"  ^[}||121/34^  ",
" ^/[^567890ab/^ ",
"^&%^^cdefg/^^%&^",
"^%&^^hhiihh^^&%^",
" ^^ ^hh^^hh^ ^^ ",
"    ^i^  ^i^    ",
"    ^i^  ^i^    ",
"   ^jj^  ^jj^   ",
"   ^kk^  ^kk^   ",
"    ^^    ^^    "};
