/* XPM */
static char * p_left_xpm[] = {
"16 29 30 1",
" 	c #509B66",
".	c #2E2E2E",
"+	c #131313",
"@	c #585858",
"#	c #464646",
"$	c #747474",
"%	c #24112F",
"&	c #FDD8C6",
"*	c #B98768",
"=	c #DCC7CC",
"-	c #F2AF7D",
";	c #F8F8F8",
">	c #BA8668",
",	c #BE8365",
"'	c #E2D8D8",
")	c #FBB3B3",
"!	c #E0E0E0",
"~	c #FCD4D4",
"{	c #C38F91",
"]	c #FAACAC",
"^	c #AEA2A3",
"/	c #ABA4A6",
"(	c #E3D5D5",
"_	c #A8A6A8",
":	c #373735",
"<	c #F6F5F6",
"[	c #FEFEFE",
"}	c #555553",
"|	c #96442C",
"1	c #AEAEC5",
"      ...+      ",
"     .@@@+.++   ",
"   +.@@@.@@@+   ",
"  ..@@@#@@@#++  ",
"  +#$@@@@@#++++ ",
" +.@$$@@@@@@@.+ ",
" +@@@@#$$@@$@@.+",
" +@@@##@@#@@###.",
" %#@######@@@##.",
" %###.######..++",
" %##.&&#####..+ ",
" %&&&&&.#####.+ ",
"  %&&**.**.##++ ",
"  %&&%=.-&*..+  ",
"  %&&%;--&*..%  ",
"  %&&&&-**..%   ",
"   %-&--*.%%%   ",
"    %%%>,%%     ",
"     %-')!%     ",
"     %~{]^%     ",
"     %!/(_%     ",
"     %%&-%:     ",
"     %%-&%:     ",
"     %:%%}:     ",
"      %:}}%     ",
"       %::%     ",
"      %||%      ",
"      %11%      ",
"      %%%       "};
