/* XPM */
static char * pd1_xpm[] = {
"24 36 290 2",
"  	c #509B66",
". 	c #509B66",
"+ 	c #686868",
"@ 	c #5A5A5A",
"# 	c #3C3C3C",
"$ 	c #4F4F4F",
"% 	c #494949",
"& 	c #202020",
"* 	c #000000",
"= 	c #2A2A2A",
"- 	c #010101",
"; 	c #1E1E1E",
"> 	c #342112",
", 	c #382414",
"' 	c #321F11",
") 	c #28170C",
"! 	c #281D18",
"~ 	c #301E10",
"{ 	c #101010",
"] 	c #313131",
"^ 	c #353535",
"/ 	c #161616",
"( 	c #513620",
"_ 	c #573A23",
": 	c #4E331E",
"< 	c #402717",
"[ 	c #211209",
"} 	c #563922",
"| 	c #4B311D",
"1 	c #040404",
"2 	c #2B1B0E",
"3 	c #372313",
"4 	c #543822",
"5 	c #513520",
"6 	c #3F2717",
"7 	c #352012",
"8 	c #563A22",
"9 	c #543821",
"0 	c #49301C",
"a 	c #392314",
"b 	c #331F11",
"c 	c #0F0F0F",
"d 	c #1F1F1F",
"e 	c #1F1208",
"f 	c #482E1B",
"g 	c #573A22",
"h 	c #452B19",
"i 	c #3D2516",
"j 	c #131313",
"k 	c #2B2B2B",
"l 	c #301C0F",
"m 	c #3F2617",
"n 	c #533721",
"o 	c #523721",
"p 	c #8E8E8E",
"q 	c #464646",
"r 	c #29221E",
"s 	c #1E1007",
"t 	c #3A2414",
"u 	c #472D1B",
"v 	c #553822",
"w 	c #523620",
"x 	c #251813",
"y 	c #2E2E2E",
"z 	c #444444",
"A 	c #7F7F7F",
"B 	c #221209",
"C 	c #321E10",
"D 	c #262626",
"E 	c #2A190D",
"F 	c #4D321E",
"G 	c #553922",
"H 	c #4C311D",
"I 	c #442A19",
"J 	c #4F331F",
"K 	c #3D2716",
"L 	c #452D1A",
"M 	c #545454",
"N 	c #74513B",
"O 	c #9F7155",
"P 	c #A17256",
"Q 	c #7A553E",
"R 	c #3A3A3A",
"S 	c #533625",
"T 	c #805A42",
"U 	c #A07256",
"V 	c #AA795C",
"W 	c #AC7B5D",
"X 	c #90664D",
"Y 	c #9A6F54",
"Z 	c #865E45",
"` 	c #5A3C2A",
" .	c #A27258",
"..	c #74523D",
"+.	c #835D45",
"@.	c #886049",
"#.	c #9E7156",
"$.	c #60412E",
"%.	c #432918",
"&.	c #2B1A0D",
"*.	c #4F341F",
"=.	c #543721",
"-.	c #74503A",
";.	c #75523C",
">.	c #6F4E3B",
",.	c #82624C",
"'.	c #B49073",
").	c #AB866A",
"!.	c #7A5640",
"~.	c #835E46",
"{.	c #9C7054",
"].	c #402817",
"^.	c #402D1D",
"/.	c #1D1D1D",
"(.	c #4C4C4C",
"_.	c #A37558",
":.	c #996D53",
"<.	c #1D0D0B",
"[.	c #857560",
"}.	c #C1AC8F",
"|.	c #AA967D",
"1.	c #21100D",
"2.	c #7C5942",
"3.	c #A47559",
"4.	c #5D5D5D",
"5.	c #342B27",
"6.	c #24140A",
"7.	c #472E1B",
"8.	c #B19479",
"9.	c #AE9378",
"0.	c #8E7761",
"a.	c #BA9D80",
"b.	c #A89278",
"c.	c #9C8971",
"d.	c #3F3F3F",
"e.	c #432B19",
"f.	c #B7A286",
"g.	c #B5A185",
"h.	c #93826C",
"i.	c #B8A489",
"j.	c #A8785A",
"k.	c #BEA689",
"l.	c #C0AB8E",
"m.	c #BBA78B",
"n.	c #BEA98C",
"o.	c #BEAA8D",
"p.	c #B1896C",
"q.	c #A6795D",
"r.	c #303030",
"s.	c #0A0A0A",
"t.	c #7C5943",
"u.	c #9A6E53",
"v.	c #B99D81",
"w.	c #BDA488",
"x.	c #BFA78A",
"y.	c #BDA386",
"z.	c #A17A5F",
"A.	c #946A50",
"B.	c #1C1C1C",
"C.	c #A17357",
"D.	c #AF8366",
"E.	c #3F372C",
"F.	c #B69477",
"G.	c #4E3627",
"H.	c #7C5740",
"I.	c #8E684F",
"J.	c #B7967A",
"K.	c #AB8C72",
"L.	c #4C3D2E",
"M.	c #A1846B",
"N.	c #9F7C62",
"O.	c #855D45",
"P.	c #3A271B",
"Q.	c #3B2415",
"R.	c #815A42",
"S.	c #190C05",
"T.	c #4A2F1E",
"U.	c #724F37",
"V.	c #7B6666",
"W.	c #867D8C",
"X.	c #81747D",
"Y.	c #5B3D29",
"Z.	c #665E69",
"`.	c #787E97",
" +	c #7A8098",
".+	c #7B8099",
"++	c #737386",
"@+	c #412818",
"#+	c #190D06",
"$+	c #989DAD",
"%+	c #A4A8B5",
"&+	c #95959F",
"*+	c #24160A",
"=+	c #424242",
"-+	c #282828",
";+	c #685D4F",
">+	c #746755",
",+	c #846F59",
"'+	c #816B54",
")+	c #5E5A70",
"!+	c #6776A2",
"~+	c #818EAF",
"{+	c #8B96B5",
"]+	c #80869F",
"^+	c #735C47",
"/+	c #86715A",
"(+	c #786956",
"_+	c #726554",
":+	c #343434",
"<+	c #97876F",
"[+	c #484F7D",
"}+	c #2C65B5",
"|+	c #3B5C9F",
"1+	c #9C876E",
"2+	c #B6A38F",
"3+	c #415792",
"4+	c #395DA2",
"5+	c #2658A4",
"6+	c #24529D",
"7+	c #2C65B4",
"8+	c #3262AD",
"9+	c #978D90",
"0+	c #B5A495",
"a+	c #224F99",
"b+	c #1D438A",
"c+	c #2C64B4",
"d+	c #9591A2",
"e+	c #676768",
"f+	c #44454A",
"g+	c #4B443C",
"h+	c #453D31",
"i+	c #506BA7",
"j+	c #4D6FB2",
"k+	c #275AA7",
"l+	c #1F4890",
"m+	c #102B5A",
"n+	c #05132F",
"o+	c #1F478E",
"p+	c #23519A",
"q+	c #436BB3",
"r+	c #5170B1",
"s+	c #484A5C",
"t+	c #473F34",
"u+	c #535357",
"v+	c #656565",
"w+	c #525253",
"x+	c #68686C",
"y+	c #525259",
"z+	c #1B1B1F",
"A+	c #2C579C",
"B+	c #315EA7",
"C+	c #365FA7",
"D+	c #2C5398",
"E+	c #1A3D7F",
"F+	c #0E244C",
"G+	c #070708",
"H+	c #193C7E",
"I+	c #23488B",
"J+	c #335FA7",
"K+	c #305EA7",
"L+	c #10274B",
"M+	c #060607",
"N+	c #5D5E62",
"O+	c #7A7A7B",
"P+	c #888889",
"Q+	c #606060",
"R+	c #393940",
"S+	c #422B19",
"T+	c #222327",
"U+	c #6D6D70",
"V+	c #303035",
"W+	c #1C1D20",
"X+	c #46342C",
"Y+	c #4D392E",
"Z+	c #5B4535",
"`+	c #4B3A2E",
" @	c #141518",
".@	c #2B2C30",
"+@	c #32261F",
"@@	c #533D2D",
"#@	c #4B3629",
"$@	c #422F25",
"%@	c #2C2423",
"&@	c #202124",
"*@	c #969696",
"=@	c #727273",
"-@	c #434447",
";@	c #3E3F44",
">@	c #4C4C4D",
",@	c #575758",
"    . . + @ @ @ @ @ # $   # # # %   . . . . . . ",
"    . . & * * * * * * =   - * * ;   . . . . . . ",
"    . . & * > , , ' ) ! & , ~ * { & ] ^ . . . . ",
". .     / * ( _ _ : < [ * } | * * * * 1         ",
". .     / * 2 3 _ 4 5 6 7 8 9 0 0 0 a b c d     ",
". .     / * * e _ _ _ f < g _ _ _ _ h i * j     ",
". . k - l m n } _ _ _ _ g _ _ _ _ _ g o * j     ",
"p q r s t u v _ _ _ _ n w _ _ _ _ _ _ n s x y z ",
"A * B < : _ _ _ _ _ _ f < g _ _ _ _ _ v < C * D ",
"A * E F n _ _ G H H H I < | J _ _ _ _ } F K * D ",
"A * ~ _ _ _ _ 9 < < < < < < u _ _ _ _ _ _ L * D ",
"M * ~ _ _ _ _ 9 < N O O O O O P Q h 9 _ _ L * R ",
"M * ~ _ _ _ G v S T U V W W X Y Z S v G _ L * R ",
"M * ~ _ _ _ I `  ...+.V W W X @.#.W $.%._ L * R ",
"M * &.*.=._ -.;.>.,.'.'.'.'.).!.~.{.$.].L ^./.(.",
"M * B < : _ _.:.<.[.}.}.}.}.|.1.2.3.$.i * /.. . ",
"4.D 5.6.7._ 8.9.1.[.}.}.}.}.|.1.0.a.b.c.* /.. . ",
"    d.* e._ f.g.1.[.}.}.}.}.|.1.h.}.}.i.* /.. . ",
"    d.* +.j.k.l.m.n.}.}.}.}.l.m.o.}.p.q.* /.. . ",
". . r.s.t.u.v.w.}.}.}.}.}.}.}.}.x.y.z.A.s.B.    ",
". .     / * C.D.}.}.}.o.E.}.}.}.F.W G.1         ",
". .     / * H.I.J.J.J.K.L.M.J.J.N.O.P.1         ",
". .     / * Q.` W W W W W W W W R.< S.1         ",
". .     / * Q.T.U.V.W.W.W.W.X.U.Y.< S.1         ",
". .     / * i h _ Z.`. +.+.+++_ H @+#+1         ",
". .     / * ( _ _ Z.`.$+%+%+&+_ _ _ *+1         ",
". . =+-+;+>+,+'+_ )+!+~+{+{+]+_ ^+/+(+_+-+:+    ",
"    d.* <+}.}.f._ [+}+}+}+}+|+_ 1+}.}.i.* /.. . ",
"    d.* <+}.}.2+3+4+}+5+6+7+8+3+9+}.}.i.* /.. . ",
"    d.* <+}.}.0+}+}+}+a+b+c+}+}+d+}.}.i.* /.. . ",
"    e+f+g+h+i+j+}+k+l+m+n+o+p+}+q+r+s+t+f+u+. . ",
"v+w+x+y+z+* A+B+C+D+E+F+G+H+I+C+J+K+L+M+y+N+O+P+",
"Q+R+y+y+z+* Q.I _ S+* T+R+- 2 _ H < S.M+y+y+y+U+",
"Q+R+y+y+V+W+X+Y+Z+`+ @.@R+ @+@@@#@$@%@&@y+y+y+U+",
"Q+R+y+y+y+y+y+y+y+y+R+R+R+R+R+R+R+R+y+y+y+y+y+U+",
"*@=@-@R+R+R+R+R+R+R+y+y+y+y+y+y+y+y+R+R+R+;@>@,@"};
