/* XPM */
static char * pd1_xpm[] = {
"27 36 293 2",
"  	c #509B66",
". 	c #509B66",
"+ 	c #686868",
"@ 	c #5A5A5A",
"# 	c #3C3C3C",
"$ 	c #4F4F4F",
"% 	c #494949",
"& 	c #202020",
"* 	c #000000",
"= 	c #2A2A2A",
"- 	c #010101",
"; 	c #1E1E1E",
"> 	c #342112",
", 	c #382414",
"' 	c #321F11",
") 	c #28170C",
"! 	c #281D18",
"~ 	c #301E10",
"{ 	c #101010",
"] 	c #313131",
"^ 	c #353535",
"/ 	c #161616",
"( 	c #513620",
"_ 	c #573A23",
": 	c #4E331E",
"< 	c #402717",
"[ 	c #211209",
"} 	c #563922",
"| 	c #4B311D",
"1 	c #040404",
"2 	c #2B1B0E",
"3 	c #372313",
"4 	c #543822",
"5 	c #513520",
"6 	c #3F2717",
"7 	c #352012",
"8 	c #563A22",
"9 	c #543821",
"0 	c #49301C",
"a 	c #392314",
"b 	c #331F11",
"c 	c #0F0F0F",
"d 	c #1F1F1F",
"e 	c #1F1208",
"f 	c #482E1B",
"g 	c #573A22",
"h 	c #452B19",
"i 	c #3D2516",
"j 	c #131313",
"k 	c #2B2B2B",
"l 	c #301C0F",
"m 	c #3F2617",
"n 	c #533721",
"o 	c #523721",
"p 	c #8E8E8E",
"q 	c #464646",
"r 	c #29221E",
"s 	c #1E1007",
"t 	c #3A2414",
"u 	c #472D1B",
"v 	c #553822",
"w 	c #523620",
"x 	c #251813",
"y 	c #2E2E2E",
"z 	c #444444",
"A 	c #7F7F7F",
"B 	c #221209",
"C 	c #321E10",
"D 	c #262626",
"E 	c #2A190D",
"F 	c #4D321E",
"G 	c #553922",
"H 	c #4C311D",
"I 	c #442A19",
"J 	c #4F331F",
"K 	c #3D2716",
"L 	c #452D1A",
"M 	c #545454",
"N 	c #74513B",
"O 	c #9F7155",
"P 	c #A17256",
"Q 	c #7A553E",
"R 	c #3A3A3A",
"S 	c #533625",
"T 	c #825B43",
"U 	c #AA795C",
"V 	c #AC7B5D",
"W 	c #A37558",
"X 	c #AB7B5D",
"Y 	c #865E45",
"Z 	c #5A3C2A",
"` 	c #855E48",
" .	c #5C402F",
"..	c #A27457",
"+.	c #73503C",
"@.	c #6E4D3A",
"#.	c #A07257",
"$.	c #60412E",
"%.	c #432918",
"&.	c #2B1A0D",
"*.	c #4F341F",
"=.	c #543721",
"-.	c #74503A",
";.	c #79553E",
">.	c #624332",
",.	c #5D4736",
"'.	c #A48368",
").	c #B49073",
"!.	c #B29073",
"~.	c #7C604C",
"{.	c #5D4030",
"].	c #79563F",
"^.	c #A47559",
"/.	c #402817",
"(.	c #402D1D",
"_.	c #1D1D1D",
":.	c #4C4C4C",
"<.	c #9B6F54",
"[.	c #76543E",
"}.	c #150907",
"|.	c #81715E",
"1.	c #C1AC8F",
"2.	c #AA967D",
"3.	c #1F0F0C",
"4.	c #74533D",
"5.	c #8E644C",
"6.	c #5D5D5D",
"7.	c #342B27",
"8.	c #24140A",
"9.	c #472E1B",
"0.	c #AF9479",
"a.	c #A2896F",
"b.	c #21100D",
"c.	c #857560",
"d.	c #8E7761",
"e.	c #BA9D80",
"f.	c #A89278",
"g.	c #9C8971",
"h.	c #3F3F3F",
"i.	c #432B19",
"j.	c #B7A286",
"k.	c #B5A185",
"l.	c #93826C",
"m.	c #B8A489",
"n.	c #835D45",
"o.	c #A8785A",
"p.	c #BEA689",
"q.	c #C0AB8E",
"r.	c #BBA78B",
"s.	c #BEA98C",
"t.	c #BEAA8D",
"u.	c #B1896C",
"v.	c #A6795D",
"w.	c #303030",
"x.	c #0A0A0A",
"y.	c #7C5943",
"z.	c #9A6E53",
"A.	c #B99D81",
"B.	c #BDA488",
"C.	c #BFA78A",
"D.	c #BDA386",
"E.	c #A17A5F",
"F.	c #946A50",
"G.	c #1C1C1C",
"H.	c #A17357",
"I.	c #AF8366",
"J.	c #0C0808",
"K.	c #B69477",
"L.	c #4E3627",
"M.	c #7C5740",
"N.	c #8E684F",
"O.	c #B7967A",
"P.	c #46372D",
"Q.	c #9F7C62",
"R.	c #855D45",
"S.	c #3A271B",
"T.	c #3B2415",
"U.	c #815A42",
"V.	c #190C05",
"W.	c #4A2F1E",
"X.	c #724F37",
"Y.	c #7B6666",
"Z.	c #867D8C",
"`.	c #81747D",
" +	c #5B3D29",
".+	c #665E69",
"++	c #787E97",
"@+	c #7A8098",
"#+	c #7B8099",
"$+	c #737386",
"%+	c #412818",
"&+	c #190D06",
"*+	c #989DAD",
"=+	c #A4A8B5",
"-+	c #95959F",
";+	c #24160A",
">+	c #424242",
",+	c #282828",
"'+	c #685D4F",
")+	c #746755",
"!+	c #846F59",
"~+	c #816B54",
"{+	c #5E5A70",
"]+	c #6776A2",
"^+	c #818EAF",
"/+	c #8B96B5",
"(+	c #80869F",
"_+	c #735C47",
":+	c #86715A",
"<+	c #786956",
"[+	c #726554",
"}+	c #343434",
"|+	c #97876F",
"1+	c #484F7D",
"2+	c #2C65B5",
"3+	c #3B5C9F",
"4+	c #9C876E",
"5+	c #B6A38F",
"6+	c #415792",
"7+	c #395DA2",
"8+	c #2658A4",
"9+	c #24529D",
"0+	c #2C65B4",
"a+	c #3262AD",
"b+	c #978D90",
"c+	c #B5A495",
"d+	c #224F99",
"e+	c #1D438A",
"f+	c #2C64B4",
"g+	c #9591A2",
"h+	c #676768",
"i+	c #44454A",
"j+	c #4B443C",
"k+	c #453D31",
"l+	c #506BA7",
"m+	c #4D6FB2",
"n+	c #275AA7",
"o+	c #1F4890",
"p+	c #102B5A",
"q+	c #05132F",
"r+	c #1F478E",
"s+	c #23519A",
"t+	c #436BB3",
"u+	c #5170B1",
"v+	c #484A5C",
"w+	c #473F34",
"x+	c #535357",
"y+	c #656565",
"z+	c #525253",
"A+	c #68686C",
"B+	c #525259",
"C+	c #1B1B1F",
"D+	c #2C579C",
"E+	c #315EA7",
"F+	c #365FA7",
"G+	c #2C5398",
"H+	c #1A3D7F",
"I+	c #0E244C",
"J+	c #070708",
"K+	c #193C7E",
"L+	c #23488B",
"M+	c #335FA7",
"N+	c #305EA7",
"O+	c #10274B",
"P+	c #060607",
"Q+	c #5D5E62",
"R+	c #7A7A7B",
"S+	c #888889",
"T+	c #606060",
"U+	c #393940",
"V+	c #422B19",
"W+	c #222327",
"X+	c #6D6D70",
"Y+	c #303035",
"Z+	c #1C1D20",
"`+	c #46342C",
" @	c #4D392E",
".@	c #5B4535",
"+@	c #4B3A2E",
"@@	c #141518",
"#@	c #2B2C30",
"$@	c #32261F",
"%@	c #533D2D",
"&@	c #4B3629",
"*@	c #422F25",
"=@	c #2C2423",
"-@	c #202124",
";@	c #969696",
">@	c #727273",
",@	c #434447",
"'@	c #3E3F44",
")@	c #4C4C4D",
"!@	c #575758",
"    . . + @ @ @ @ @ # $   # # # %   . . . . . . . .   ",
"    . . & * * * * * * =   - * * ;   . . . . . . . .   ",
"    . . & * > , , ' ) ! & , ~ * { & ] ^ . . . . . .   ",
". .     / * ( _ _ : < [ * } | * * * * 1             . ",
". .     / * 2 3 _ 4 5 6 7 8 9 0 0 0 a b c d         . ",
". .     / * * e _ _ _ f < g _ _ _ _ h i * j         . ",
". . k - l m n } _ _ _ _ g _ _ _ _ _ g o * j         . ",
"p q r s t u v _ _ _ _ n w _ _ _ _ _ _ n s x y z     . ",
"A * B < : _ _ _ _ _ _ f < g _ _ _ _ _ v < C * D     . ",
"A * E F n _ _ G H H H I < | J _ _ _ _ } F K * D     . ",
"A * ~ _ _ _ _ 9 < < < < < < u _ _ _ _ _ _ L * D     . ",
"M * ~ _ _ _ _ 9 < N O O O O O P Q h 9 _ _ L * R . .   ",
"M * ~ _ _ _ G v S T U U V W X V Y S v G _ L * R . .   ",
"M * ~ _ _ _ I Z V `  ...V +.@.#.V V $.%._ L * R . .   ",
"M * &.*.=._ -.;.>.,.'.).).!.~.{.].^.$./.L (._.:.. .   ",
"M * B < : _ <.[.}.|.1.1.1.1.2.3.4.5.$.i * _.. . . .   ",
"6.D 7.8.9._ 0.a.b.c.1.1.1.1.2.b.d.e.f.g.* _.. . . .   ",
"    h.* i._ j.k.b.c.1.1.1.1.2.b.l.1.1.m.* _.. . . .   ",
"    h.* n.o.p.q.r.s.1.1.1.1.q.r.t.1.u.v.* _.. . . .   ",
". . w.x.y.z.A.B.1.1.1.1.1.1.1.1.C.D.E.F.x.G.        . ",
". .     / * H.I.1.1.1.1.J.1.1.1.K.V L.1             . ",
". .     / * M.N.O.O.O.O.P.O.O.O.Q.R.S.1             . ",
". .     / * T.Z V V V V V V V V U.< V.1             . ",
". .     / * T.W.X.Y.Z.Z.Z.Z.`.X. +< V.1             . ",
". .     / * i h _ .+++@+#+#+$+_ H %+&+1             . ",
". .     / * ( _ _ .+++*+=+=+-+_ _ _ ;+1             . ",
". . >+,+'+)+!+~+_ {+]+^+/+/+(+_ _+:+<+[+,+}+        . ",
"    h.* |+1.1.j._ 1+2+2+2+2+3+_ 4+1.1.m.* _.. . . .   ",
"    h.* |+1.1.5+6+7+2+8+9+0+a+6+b+1.1.m.* _.. . . .   ",
"    h.* |+1.1.c+2+2+2+d+e+f+2+2+g+1.1.m.* _.. . . .   ",
"    h+i+j+k+l+m+2+n+o+p+q+r+s+2+t+u+v+w+i+x+. . . .   ",
"y+z+A+B+C+* D+E+F+G+H+I+J+K+L+F+M+N+O+P+B+Q+R+S+. .   ",
"T+U+B+B+C+* T.I _ V+* W+U+- 2 _ H < V.P+B+B+B+X+. .   ",
"T+U+B+B+Y+Z+`+ @.@+@@@#@U+@@$@%@&@*@=@-@B+B+B+X+. .   ",
"T+U+B+B+B+B+B+B+B+B+U+U+U+U+U+U+U+U+B+B+B+B+B+X+. .   ",
";@>@,@U+U+U+U+U+U+U+B+B+B+B+B+B+B+B+U+U+U+'@)@!@    . "};
