/* XPM */
static char * pd2_xpm[] = {
"27 36 265 2",
"  	c #509B66",
". 	c #5B5B5B",
"+ 	c #5A5A5A",
"@ 	c #3C3C3C",
"# 	c #3E3E3E",
"$ 	c #509B66",
"% 	c #4C4C4C",
"& 	c #8B8B8B",
"* 	c #010101",
"= 	c #000000",
"- 	c #050505",
"; 	c #242424",
"> 	c #6E6E6E",
", 	c #1A0F06",
"' 	c #382414",
") 	c #2C1A0D",
"! 	c #29180D",
"~ 	c #202020",
"{ 	c #33261B",
"] 	c #1F1208",
"^ 	c #2D2D2D",
"/ 	c #313131",
"( 	c #4D4D4D",
"_ 	c #2C1B0E",
": 	c #573A23",
"< 	c #452B19",
"[ 	c #3D2515",
"} 	c #352213",
"| 	c #322011",
"1 	c #1B1B1B",
"2 	c #150B04",
"3 	c #2F1E0F",
"4 	c #482F1B",
"5 	c #523620",
"6 	c #4F331F",
"7 	c #352012",
"8 	c #442C19",
"9 	c #4E341F",
"0 	c #49301C",
"a 	c #452D1A",
"b 	c #2B1B11",
"c 	c #0F0F0F",
"d 	c #3A3A3A",
"e 	c #402A18",
"f 	c #553822",
"g 	c #402717",
"h 	c #4A2F1C",
"i 	c #533721",
"j 	c #2D1A0E",
"k 	c #323232",
"l 	c #101010",
"m 	c #3F2617",
"n 	c #462C1A",
"o 	c #563922",
"p 	c #573A22",
"q 	c #3E2817",
"r 	c #414141",
"s 	c #2E2E2E",
"t 	c #22160F",
"u 	c #1E1007",
"v 	c #4B311D",
"w 	c #563A22",
"x 	c #543721",
"y 	c #422B19",
"z 	c #2A2422",
"A 	c #303030",
"B 	c #4D311E",
"C 	c #1C0F06",
"D 	c #020202",
"E 	c #412A18",
"F 	c #4D321E",
"G 	c #513520",
"H 	c #4C311D",
"I 	c #4B301D",
"J 	c #23150A",
"K 	c #50341F",
"L 	c #28190C",
"M 	c #93684E",
"N 	c #9F7155",
"O 	c #A07255",
"P 	c #A17256",
"Q 	c #4F3321",
"R 	c #492F1C",
"S 	c #040404",
"T 	c #543723",
"U 	c #533625",
"V 	c #A07256",
"W 	c #AC7B5D",
"X 	c #5C3D2B",
"Y 	c #533724",
"Z 	c #886047",
"` 	c #9C6F54",
" .	c #432B19",
"..	c #4F341F",
"+.	c #61422B",
"@.	c #78533D",
"#.	c #835C45",
"$.	c #8C634B",
"%.	c #AE896D",
"&.	c #B49073",
"*.	c #9B755B",
"=.	c #AA7A5C",
"-.	c #432A19",
";.	c #35281E",
">.	c #755139",
",.	c #7B5641",
"'.	c #21100D",
").	c #B19D83",
"!.	c #C1AC8F",
"~.	c #796A57",
"{.	c #A7775A",
"].	c #4B4B4B",
"^.	c #595959",
"/.	c #2B1D15",
"(.	c #24140A",
"_.	c #7B614A",
":.	c #BA9D80",
"<.	c #856F5A",
"[.	c #B5997D",
"}.	c #B59A7E",
"|.	c #A39076",
"1.	c #776856",
"2.	c #161616",
"3.	c #7E6852",
"4.	c #8A7964",
"5.	c #BCA78B",
"6.	c #8E7E68",
"7.	c #AF886B",
"8.	c #BEA98D",
"9.	c #BBA78B",
"0.	c #C0AB8E",
"a.	c #BDA98C",
"b.	c #BDA487",
"c.	c #AD7F61",
"d.	c #7F5C46",
"e.	c #181818",
"f.	c #0A0A0A",
"g.	c #996D52",
"h.	c #A47F64",
"i.	c #BDA386",
"j.	c #BFA88B",
"k.	c #B69A7D",
"l.	c #9A6E53",
"m.	c #765440",
"n.	c #373737",
"o.	c #5C402F",
"p.	c #B8987B",
"q.	c #463022",
"r.	c #855D45",
"s.	c #A38066",
"t.	c #B7967A",
"u.	c #89624A",
"v.	c #77533D",
"w.	c #1F1007",
"x.	c #4D3121",
"y.	c #392213",
"z.	c #5F402B",
"A.	c #724F37",
"B.	c #837782",
"C.	c #867D8C",
"D.	c #79625F",
"E.	c #442B1A",
"F.	c #515151",
"G.	c #2E2820",
"H.	c #382C22",
"I.	c #4E3829",
"J.	c #533926",
"K.	c #73758B",
"L.	c #787E97",
"M.	c #7B8099",
"N.	c #655A61",
"O.	c #4E3828",
"P.	c #483527",
"Q.	c #2D271F",
"R.	c #38332D",
"S.	c #947F67",
"T.	c #7D839A",
"U.	c #A4A8B5",
"V.	c #787072",
"W.	c #BCA88B",
"X.	c #646F94",
"Y.	c #6B7AA4",
"Z.	c #8B96B5",
"`.	c #6C6672",
" +	c #375FA6",
".+	c #2C65B5",
"++	c #4B4C72",
"@+	c #434343",
"#+	c #343434",
"$+	c #7E705C",
"%+	c #7F7676",
"&+	c #8287A7",
"*+	c #65709C",
"=+	c #415792",
"-+	c #3063AF",
";+	c #2B63B3",
">+	c #24529D",
",+	c #275AA6",
"'+	c #3B5C9F",
")+	c #7F84A6",
"!+	c #81829B",
"~+	c #716758",
"{+	c #676767",
"]+	c #133462",
"^+	c #2B62B1",
"/+	c #1D438A",
"(+	c #23529C",
"_+	c #265AA2",
":+	c #282828",
"<+	c #5E5F63",
"[+	c #55565B",
"}+	c #224E97",
"|+	c #1D448A",
"1+	c #05132F",
"2+	c #122F62",
"3+	c #1F4890",
"4+	c #285CA9",
"5+	c #212225",
"6+	c #777878",
"7+	c #858686",
"8+	c #7A7A7B",
"9+	c #5A5B60",
"0+	c #525259",
"a+	c #16305A",
"b+	c #305EA7",
"c+	c #335FA7",
"d+	c #365FA7",
"e+	c #214587",
"f+	c #193B7A",
"g+	c #070708",
"h+	c #112854",
"i+	c #1A3D7F",
"j+	c #2E569B",
"k+	c #2A5495",
"l+	c #202124",
"m+	c #6C6C6F",
"n+	c #7B7B7C",
"o+	c #68686C",
"p+	c #4E321E",
"q+	c #050506",
"r+	c #393940",
"s+	c #1D1E22",
"t+	c #472E1B",
"u+	c #422918",
"v+	c #54545A",
"w+	c #1D1E21",
"x+	c #312724",
"y+	c #4A372D",
"z+	c #4C3729",
"A+	c #533D2D",
"B+	c #2C221D",
"C+	c #17171A",
"D+	c #29292E",
"E+	c #141518",
"F+	c #473428",
"G+	c #5B4535",
"H+	c #4B382E",
"I+	c #44332A",
"J+	c #1C1D20",
"K+	c #333439",
"L+	c #555556",
"M+	c #4C4C4D",
"N+	c #3C3D42",
"O+	c #454649",
"P+	c #4D4D4E",
"          . + + @ @ @ # $ % @ @ + &             $ $ $ ",
"          * = = = = = - $ ; = = = >             $ $ $ ",
"          * , ' ' ' ) ! ~ { ' ] = ^ / / (       $ $ $ ",
"$ $ $ $ $ * _ : : : < [ = } : | = = = = 1 $ $ $       ",
"$ $ $ $ $ * 2 3 4 : 5 6 7 8 : 9 0 0 a 7 b c d $       ",
"$ $ $ $ $ * = = e : : f g h : : : : i g j = k $       ",
"$ $ $ l * m n o p : : : p : : : : : : p q = k $       ",
"$ r s t u n v : : : : w 5 x : : : : : : y u z A       ",
"$ ~ = 7 g p : : : : : f g h : : : : : : B g C D       ",
"$ ~ = E F : : : G H H I g < H i : : : : 5 F J D       ",
"$ ~ = 0 : : : : v g g g g g g K : : : : : : L D       ",
"  / = 0 : : : : v g M N N N N O P Q R : : : L S $ $ $ ",
"  / = 0 : : w f T U V W W W W W W X Y f o : L S $ $ $ ",
"  / = 0 : : 5 g Z W W W W W W W W W ` g H : L S $ $ $ ",
"  / =  ...: +.@.#.$.%.&.&.&.&.*.$.=.` g -.a ;.~ $ $ $ ",
"  / = 7 g p >.W ,.'.).!.!.!.!.~.'.{.` g j = ].  $ $ $ ",
"  ^.d /.(.w _.:.<.'.).!.!.!.!.~.'.[.}.|.1.= ].  $ $ $ ",
"      2.= o 3.!.4.'.).!.!.!.!.~.'.5.!.!.6.= ].  $ $ $ ",
"      2.= {.7.!.8.9.0.!.!.!.!.a.9.!.b.c.d.= ].  $ $ $ ",
"$ $ $ e.f.g.h.i.j.!.!.!.!.!.!.!.!.b.k.l.m.f.n.$       ",
"$ $ $ $ $ * o.W p.!.!.!.!.!.!.!.!.c.l.= 1 $ $ $       ",
"$ $ $ $ $ * q.r.s.t.t.t.t.t.t.t.t.u.v.= 1 $ $ $       ",
"$ $ $ $ $ * w.g Z W W W W W W W W x.y.= 1 $ $ $       ",
"$ $ $ $ $ * w.g z.A.B.C.C.C.C.D.A.E.y.= 1 $ $ $       ",
"$ $ $ F.( G.H.I.J.: K.L.M.M.M.N.: O.P.Q.R.( . $       ",
"$ $ $ c = 0.!.!.S.: K.T.U.U.U.V.: W.!.!.6.= k $       ",
"$ $ $ c = 0.!.!.S.: X.Y.Z.Z.Z.`.: W.!.!.6.= k $       ",
"      2.= 0.!.!.S.:  +.+.+.+.+++: W.!.!.6.= ].  $ $ $ ",
"      @+#+$+%+&+*+=+-+;+>+,+.+'+=+)+!+$+~+#+{+  $ $ $ ",
"          * ]+.+.+.+.+^+/+(+.+.+.+.+_+= :+      $ $ $ ",
"      <+[+* ]+.+.+.+}+|+1+2+3+4+.+.+_+= 5+[+6+  $ $ $ ",
"  7+8+9+0+* a+b+c+d+e+f+g+h+i+j+d+b+k+= l+0+m+n+$ $ $ ",
"  o+0+0+0+* w.g p+: J q+r+s+= t+: u+y.= l+0+0+v+$ $ $ ",
"  o+0+0+0+w+x+y+z+A+B+C+r+D+E+F+G+H+I+J+K+0+0+v+$ $ $ ",
"  o+0+0+0+0+0+0+r+r+r+r+r+r+r+r+0+0+0+0+0+0+0+v+$ $ $ ",
"$ L+M+N+r+r+r+r+0+0+0+0+0+0+0+0+r+r+r+r+r+r+O+P+      "};
