/* XPM */
static char * pr1_xpm[] = {
"26 36 299 2",
"  	c #509B66",
". 	c #393939",
"+ 	c #181818",
"@ 	c #292929",
"# 	c #353535",
"$ 	c #252525",
"% 	c #333333",
"& 	c #509B66",
"* 	c #2A2A2A",
"= 	c #000000",
"- 	c #161616",
"; 	c #131313",
"> 	c #3C2716",
", 	c #4F341F",
"' 	c #4C321E",
") 	c #3A2314",
"! 	c #2F1D11",
"~ 	c #0D0D0D",
"{ 	c #462F1D",
"] 	c #060201",
"^ 	c #030303",
"/ 	c #3B3B3B",
"( 	c #3F2917",
"_ 	c #533721",
": 	c #563A22",
"< 	c #543822",
"[ 	c #432918",
"} 	c #341F12",
"| 	c #100603",
"1 	c #4A311D",
"2 	c #573A23",
"3 	c #140A04",
"4 	c #130903",
"5 	c #190D06",
"6 	c #34302F",
"7 	c #444444",
"8 	c #513620",
"9 	c #4E331E",
"0 	c #402717",
"a 	c #513520",
"b 	c #412817",
"c 	c #472D1B",
"d 	c #24160A",
"e 	c #040404",
"f 	c #8A8A8A",
"g 	c #291F1A",
"h 	c #26150A",
"i 	c #301D10",
"j 	c #352213",
"k 	c #523620",
"l 	c #4A2F1C",
"m 	c #4D321E",
"n 	c #3D2817",
"o 	c #362314",
"p 	c #242424",
"q 	c #303030",
"r 	c #7F7F7F",
"s 	c #221209",
"t 	c #1B1A1A",
"u 	c #331F11",
"v 	c #3E2616",
"w 	c #50341F",
"x 	c #543821",
"y 	c #563922",
"z 	c #472E1B",
"A 	c #3E2A1A",
"B 	c #111111",
"C 	c #323232",
"D 	c #0C0C0C",
"E 	c #040201",
"F 	c #482E1B",
"G 	c #452D1A",
"H 	c #3A3A3A",
"I 	c #452B19",
"J 	c #422918",
"K 	c #462C1A",
"L 	c #533621",
"M 	c #432A19",
"N 	c #442A19",
"O 	c #4C3120",
"P 	c #654531",
"Q 	c #6B4A33",
"R 	c #714E36",
"S 	c #593B25",
"T 	c #472F1B",
"U 	c #1B0E06",
"V 	c #372F2C",
"W 	c #4C4C4C",
"X 	c #6A4934",
"Y 	c #AC7B5D",
"Z 	c #60412E",
"` 	c #24140A",
" .	c #442B19",
"..	c #4C311D",
"+.	c #452C1A",
"@.	c #4D311E",
"#.	c #79553F",
"$.	c #90664C",
"%.	c #8C634A",
"&.	c #7C5740",
"*.	c #4B301D",
"=.	c #6D4D38",
"-.	c #78563F",
";.	c #976B52",
">.	c #9C7054",
",.	c #77543F",
"'.	c #5E4330",
").	c #94694E",
"!.	c #93684E",
"~.	c #4E321E",
"{.	c #8C6248",
"].	c #9C6F53",
"^.	c #5B3E2D",
"/.	c #604F3D",
"(.	c #9E8870",
"_.	c #BDA386",
":.	c #8C7862",
"<.	c #624C3B",
"[.	c #573B2C",
"}.	c #1C0F06",
"|.	c #2D1A0E",
"1.	c #482D1B",
"2.	c #573A22",
"3.	c #A37558",
"4.	c #A37457",
"5.	c #4B301F",
"6.	c #503421",
"7.	c #9A6F54",
"8.	c #AD7E61",
"9.	c #2A1913",
"0.	c #6C5D4D",
"a.	c #C1AC8F",
"b.	c #5D5041",
"c.	c #1F0F0B",
"d.	c #25150B",
"e.	c #8C6249",
"f.	c #A7947A",
"g.	c #2D1F19",
"h.	c #262626",
"i.	c #341F11",
"j.	c #382213",
"k.	c #9B755B",
"l.	c #7F6C58",
"m.	c #B09C82",
"n.	c #7A6B58",
"o.	c #907F69",
"p.	c #897964",
"q.	c #736452",
"r.	c #060606",
"s.	c #313131",
"t.	c #A27457",
"u.	c #B59275",
"v.	c #B8A489",
"w.	c #281E19",
"x.	c #26160B",
"y.	c #372113",
"z.	c #73503A",
"A.	c #825B43",
"B.	c #B08567",
"C.	c #B49074",
"D.	c #BDA488",
"E.	c #A79479",
"F.	c #3F382C",
"G.	c #B79679",
"H.	c #AD8A6E",
"I.	c #301C0F",
"J.	c #5A3C2A",
"K.	c #BB9F83",
"L.	c #A09075",
"M.	c #302B22",
"N.	c #B08668",
"O.	c #A47559",
"P.	c #525252",
"Q.	c #414141",
"R.	c #1D1715",
"S.	c #110703",
"T.	c #3C2415",
"U.	c #553826",
"V.	c #835C44",
"W.	c #AE8062",
"X.	c #AE8164",
"Y.	c #A97D62",
"Z.	c #936C53",
"`.	c #5F4433",
" +	c #3D2A1F",
".+	c #484848",
"++	c #3B2415",
"@+	c #76523B",
"#+	c #A17356",
"$+	c #A47964",
"%+	c #A57B6A",
"&+	c #A27660",
"*+	c #A07256",
"=+	c #483123",
"-+	c #6F6F82",
";+	c #787E97",
">+	c #5F5C6B",
",+	c #190C05",
"'+	c #202020",
")+	c #4B311D",
"!+	c #51351F",
"~+	c #7E849B",
"{+	c #8E93A5",
"]+	c #6D6A75",
"^+	c #070707",
"/+	c #858A9F",
"(+	c #A4A8B5",
"_+	c #7B7981",
":+	c #4B4B4B",
"<+	c #141414",
"[+	c #8B7C68",
"}+	c #A7957C",
"|+	c #AA967C",
"1+	c #A28E75",
"2+	c #999DAD",
"3+	c #9CA1AF",
"4+	c #8A6249",
"5+	c #90674E",
"6+	c #2D2D2D",
"7+	c #3F3F3F",
"8+	c #97876F",
"9+	c #B7A286",
"0+	c #A3A7B4",
"a+	c #A3A8B5",
"b+	c #9F7155",
"c+	c #1D1D1D",
"d+	c #3D5B9B",
"e+	c #2C65B5",
"f+	c #384B81",
"g+	c #4A4A4A",
"h+	c #121214",
"i+	c #897A66",
"j+	c #A6937A",
"k+	c #A6978B",
"l+	c #9E8F89",
"m+	c #4D4A6A",
"n+	c #37579A",
"o+	c #285DAA",
"p+	c #314A80",
"q+	c #362012",
"r+	c #886048",
"s+	c #8E654C",
"t+	c #2B2B2C",
"u+	c #707072",
"v+	c #525259",
"w+	c #1B1B1F",
"x+	c #1A3E81",
"y+	c #204991",
"z+	c #224F99",
"A+	c #1D438A",
"B+	c #2C64B4",
"C+	c #1C457F",
"D+	c #060607",
"E+	c #5E5F63",
"F+	c #626262",
"G+	c #424346",
"H+	c #5C5D61",
"I+	c #303159",
"J+	c #373A64",
"K+	c #48507E",
"L+	c #3A4B7D",
"M+	c #1B437C",
"N+	c #143468",
"O+	c #102B5D",
"P+	c #38497C",
"Q+	c #3D4B7D",
"R+	c #303658",
"S+	c #1E1F22",
"T+	c #292A2E",
"U+	c #57585C",
"V+	c #616265",
"W+	c #777878",
"X+	c #8F8F8F",
"Y+	c #393940",
"Z+	c #121216",
"`+	c #422B19",
" @	c #3F2617",
".@	c #3B2615",
"+@	c #2A2B2F",
"@@	c #49494C",
"#@	c #313238",
"$@	c #2C2D32",
"%@	c #3E3535",
"&@	c #413736",
"*@	c #493D39",
"=@	c #403736",
"-@	c #404146",
";@	c #534A4A",
">@	c #564C4A",
",@	c #5D514D",
"'@	c #524A49",
")@	c #36363D",
"!@	c #909090",
"~@	c #56575C",
"{@	c #3A3B41",
"]@	c #3A3A40",
"^@	c #3B3C41",
"/@	c #4B4B4D",
"(@	c #404145",
"      . + + + + + + @   # $ $ %       & & & & & & & ",
"      * = = = = = = -   - = = ;       & & & & & & & ",
"      * = > , , ' ) ! ~ { , ] ^ ~ ~ ~ / & & & & & & ",
"      * = ( _ : < [ } | 1 2 3 4 5 5 5 6 7 & & & & & ",
"      * = = = 8 2 2 9 0 a 2 b c 2 2 2 d e & & & & & ",
"  f # g h i j _ 2 2 k l _ 2 l m 2 2 2 n o p q & & & ",
"  r = s 0 9 2 2 2 2 2 2 2 2 2 2 2 2 2 2 _ = ; & & & ",
"@ t u v w x 2 2 2 2 2 2 2 2 2 2 2 2 2 2 y z A B C & ",
"D E 0 F 2 2 2 2 2 2 2 2 2 2 2 2 2 2 2 2 2 2 G = H   ",
"D E 0 F 2 2 2 I I 2 2 2 2 2 J J J 9 2 2 2 2 G = H   ",
"D E 0 K L L L M N 2 2 2 2 2 b O P Q R S _ 2 T U V W ",
"D E 0 0 0 0 0 0 N 2 2 2 2 2 b X Y Y Y Z [ 2 , 0 ` = ",
"D E 0  ...+.0 0 N 2 2 2 w @.#.$.Y Y Y %.&.@.F 0 ` = ",
"D E 0 F 2 *.0 0 N 2 2 2 F 0 =.-.;.Y >.,.'.0 0 0 ` = ",
"D E 0 F 2 < L ).!.K ~.2 {.].^./.(._.:.<.[.}.|.0 ` = ",
"D E 0 1.y 2.2 3.4.5.6.y 7.8.9.0.a.a.a.b.c.= ` v d.e ",
"; E 0 0 0 9 2 3.Y Y e.0 f.a.g.0.a.a.a.b.c.= = = h.& ",
"@ t i.j.0 l w 4.Y Y k.l.m.a.n.o.a.a.a.p.q.= r.B s.& ",
"  r = s 0 0 0 t.Y Y u.a.a.a.a.a.a.a.a.a.v.= ; & & & ",
"  f # w.x.y.0 z.A.Y B.C.D.a.a.a.a.E.F.G.H.= ; & & & ",
"      * = I.0 0 J.Y Y Y K.a.a.a.a.L.M.N.O.= ; & & & ",
"      P.Q.R.S.T.M U.V.Y W.X.X.X.X.Y.Z.`. +Q..+& & & ",
"      & & - = ++0 0 @+#+$+%+%+%+%+&+*+=+e & & & & & ",
"      & & - = ++0 0 *.2 -+;+;+;+;+>+0 ,+e & & & & & ",
"& & &     '+= ++J )+!+2 -+;+;+~+{+]+0 ,+^+          ",
"& & &     '+= ++N 2 2 2 -+;+;+/+(+_+0 ,+^+          ",
"& & & :+<+[+}+|+1+2 2 2 -+;+2+3+(+_+0 4+5+<+6+      ",
"& & & 7+= 8+a.a.9+2 2 2 -+;+0+a+a+_+0 b+O.= c+      ",
"& & & 7+= 8+a.a.9+2 2 2 d+e+e+e+e+f+0 b+O.= c+      ",
"& & & g+h+i+j+k+l+m+m+m+n+o+e+e+e+p+q+r+s+h+t+      ",
"& & & u+v+w+= x+y+e+e+e+z+A+B+e+e+C+= = D+v+E+      ",
"& F+G+H+v+w+= I+J+K+L+M+N+O+P+Q+K+R+= S+T+v+U+V+W+  ",
"  X+v+Y+Y+Z+= ++N 2 `+= = =  @c 2 .@= +@Y+Y+Y+Y+@@& ",
"  X+v+Y+Y+#@$@%@&@*@=@-@-@-@;@>@,@'@-@)@Y+Y+Y+Y+@@& ",
"  !@~@{@Y+Y+Y+Y+Y+Y+Y+v+v+v+v+v+v+v+v+Y+Y+Y+]@^@/@& ",
"      /@Y+Y+Y+Y+Y+Y+Y+v+v+v+v+v+v+v+v+Y+Y+Y+(@& & & "};
