/* XPM */
static char * pr2_xpm[] = {
"27 36 284 2",
"  	c #509B66",
". 	c #509B66",
"+ 	c #242424",
"@ 	c #181818",
"# 	c #252525",
"$ 	c #646464",
"% 	c #717171",
"& 	c #525252",
"* 	c #0F0F0F",
"= 	c #000000",
"- 	c #535353",
"; 	c #3A3A3A",
"> 	c #4E341F",
", 	c #4F341F",
"' 	c #442C19",
") 	c #3A2314",
"! 	c #1F140E",
"~ 	c #211610",
"{ 	c #3E2817",
"] 	c #080808",
"^ 	c #121212",
"/ 	c #523620",
"( 	c #543821",
"_ 	c #573A23",
": 	c #4D321E",
"< 	c #432918",
"[ 	c #201108",
"} 	c #201208",
"| 	c #462E1B",
"1 	c #100603",
"2 	c #160B05",
"3 	c #190D06",
"4 	c #1E140D",
"5 	c #424242",
"6 	c #4D4D4D",
"7 	c #2C1B0E",
"8 	c #452B19",
"9 	c #402717",
"0 	c #50341F",
"a 	c #4D331E",
"b 	c #1B1B1B",
"c 	c #393939",
"d 	c #281910",
"e 	c #26150A",
"f 	c #352213",
"g 	c #402A18",
"h 	c #4C311D",
"i 	c #4B301D",
"j 	c #4A2F1C",
"k 	c #533721",
"l 	c #513620",
"m 	c #342519",
"n 	c #454545",
"o 	c #202020",
"p 	c #352012",
"q 	c #573A22",
"r 	c #323232",
"s 	c #656565",
"t 	c #111111",
"u 	c #291A11",
"v 	c #331F11",
"w 	c #492F1C",
"x 	c #4F351F",
"y 	c #472E1B",
"z 	c #2D2015",
"A 	c #131313",
"B 	c #3B3B3B",
"C 	c #29170C",
"D 	c #513520",
"E 	c #28190C",
"F 	c #040404",
"G 	c #422918",
"H 	c #4E331E",
"I 	c #563922",
"J 	c #4E321E",
"K 	c #533621",
"L 	c #5A3C2A",
"M 	c #654531",
"N 	c #704D36",
"O 	c #6B4A32",
"P 	c #553822",
"Q 	c #301E10",
"R 	c #1D1009",
"S 	c #333333",
"T 	c #3C3C3C",
"U 	c #92684D",
"V 	c #AC7B5D",
"W 	c #9C6F54",
"X 	c #462C1A",
"Y 	c #3E2616",
"Z 	c #492E1C",
"` 	c #4D311E",
" .	c #664630",
"..	c #845D44",
"+.	c #A07256",
"@.	c #A47558",
"#.	c #6D4B35",
"$.	c #432A19",
"%.	c #78543D",
"&.	c #855D45",
"*.	c #6C4A33",
"=.	c #9C6F53",
"-.	c #77533C",
";.	c #61422B",
">.	c #886048",
",.	c #5B3E2E",
"'.	c #A48B71",
").	c #BDA386",
"!.	c #AD9479",
"~.	c #442E21",
"{.	c #1C0F06",
"].	c #755139",
"^.	c #835C44",
"/.	c #4B301F",
"(.	c #543822",
"_.	c #63442D",
":.	c #AD7E61",
"<.	c #8D664D",
"[.	c #21100D",
"}.	c #A18F76",
"|.	c #C1AC8F",
"1.	c #AE9A80",
"2.	c #150906",
"3.	c #372113",
"4.	c #3C2415",
"5.	c #020202",
"6.	c #595959",
"7.	c #60402D",
"8.	c #594535",
"9.	c #9D8B73",
"0.	c #291B11",
"a.	c #341F11",
"b.	c #3D2516",
"c.	c #724F38",
"d.	c #886F59",
"e.	c #87755F",
"f.	c #AA977D",
"g.	c #786957",
"h.	c #AD997F",
"i.	c #B4A085",
"j.	c #574B3D",
"k.	c #0D0D0D",
"l.	c #6B4934",
"m.	c #BDA588",
"n.	c #8E7E68",
"o.	c #232323",
"p.	c #281A11",
"q.	c #26160B",
"r.	c #543725",
"s.	c #79543E",
"t.	c #976B50",
"u.	c #B38D70",
"v.	c #B69477",
"w.	c #BEA68A",
"x.	c #B49074",
"y.	c #846953",
"z.	c #886047",
"A.	c #AE8163",
"B.	c #7E5942",
"C.	c #474747",
"D.	c #414141",
"E.	c #110804",
"F.	c #24140A",
"G.	c #4C3120",
"H.	c #553826",
"I.	c #A17256",
"J.	c #AC7C5E",
"K.	c #AE8164",
"L.	c #9E755A",
"M.	c #3C281D",
"N.	c #403229",
"O.	c #555555",
"P.	c #010101",
"Q.	c #1F1007",
"R.	c #966A4F",
"S.	c #A27458",
"T.	c #A57B6A",
"U.	c #A07257",
"V.	c #8F654C",
"W.	c #5B453C",
"X.	c #787E97",
"Y.	c #45322E",
"Z.	c #392213",
"`.	c #3D3D3D",
" +	c #2E2E2E",
".+	c #867763",
"++	c #796956",
"@+	c #4B311D",
"#+	c #878CA1",
"$+	c #8E93A5",
"%+	c #483632",
"&+	c #503524",
"*+	c #77543F",
"=+	c #6A5040",
"-+	c #636363",
";+	c #161616",
">+	c #C0AB8E",
",+	c #AB977D",
"'+	c #979BAB",
")+	c #A4A8B5",
"!+	c #4B3B36",
"~+	c #4B4B4B",
"{+	c #BBA78A",
"]+	c #AA967C",
"^+	c #85705A",
"/+	c #868BA0",
"(+	c #9A9EAE",
"_+	c #A1A5B2",
":+	c #BFAA8D",
"<+	c #947F66",
"[+	c #8A8FA3",
"}+	c #A3A8B5",
"|+	c #644431",
"1+	c #AB7A5D",
"2+	c #7D5942",
"3+	c #544046",
"4+	c #2C65B5",
"5+	c #3F2E36",
"6+	c #282828",
"7+	c #777878",
"8+	c #717173",
"9+	c #1A1628",
"0+	c #38314F",
"a+	c #45405F",
"b+	c #4D4A6A",
"c+	c #4B4C73",
"d+	c #285DAA",
"e+	c #2A60AE",
"f+	c #352934",
"g+	c #332014",
"h+	c #121214",
"i+	c #333335",
"j+	c #868787",
"k+	c #5C5D61",
"l+	c #525259",
"m+	c #0A2049",
"n+	c #1D438A",
"o+	c #2657A3",
"p+	c #2B62B1",
"q+	c #23529C",
"r+	c #05162F",
"s+	c #0E0E0E",
"t+	c #767677",
"u+	c #757576",
"v+	c #616265",
"w+	c #56575C",
"x+	c #181831",
"y+	c #34355F",
"z+	c #404571",
"A+	c #48507E",
"B+	c #27467C",
"C+	c #1A4179",
"D+	c #102B5D",
"E+	c #25396B",
"F+	c #384A7D",
"G+	c #434E7E",
"H+	c #0D101E",
"I+	c #5D5D62",
"J+	c #626266",
"K+	c #46464A",
"L+	c #393940",
"M+	c #23150A",
"N+	c #120903",
"O+	c #0A0A0A",
"P+	c #3A3A40",
"Q+	c #2D2E33",
"R+	c #322F33",
"S+	c #3F3636",
"T+	c #594E4B",
"U+	c #5D514D",
"V+	c #484547",
"W+	c #404146",
"X+	c #494548",
"Y+	c #534A4A",
"Z+	c #5A4F4B",
"`+	c #493D39",
" @	c #2F2D32",
".@	c #2F3035",
"+@	c #48484B",
"@@	c #3B3C41",
"#@	c #3A3B40",
"$@	c #3C3D41",
"%@	c #3E3F43",
"&@	c #4F4F50",
"  . . . + @ @ @ @ # # $ % # # # & . . . . . . . .     ",
"  . . . * = = = = = = - $ = = = ; . . . . . . . .     ",
"  . . . * = > , , ' ) ! ~ , { = ] ] ] ^ . . . . .     ",
"  . . . * = / ( _ : < [ } _ | 1 2 3 3 4 5 6 . . .     ",
"  . . . * = = 7 _ _ _ 8 < _ , 9 0 _ _ a = b . . .     ",
"  . c + d e f g _ _ _ h i _ / j k _ _ l f m + n .     ",
"  . o = p 9 q _ _ _ _ _ _ _ _ _ _ _ _ _ _ { = r .     ",
"s t u v w 0 _ _ _ _ _ _ _ _ _ _ _ _ _ _ _ x y z A     ",
"B = C 9 D _ _ _ _ _ _ _ _ _ _ _ _ _ _ _ _ _ _ E F . . ",
"B = C 9 D _ _ / G H _ _ _ _ 0 G G G I _ _ _ _ E F . . ",
"B = C 9 J K K H 9 J _ _ _ _ , 9 L M N O K P _ Q R S T ",
"B = C 9 9 9 9 9 9 J _ _ _ _ , 9 U V V W 9 h _ X Y = t ",
"B = C 9 Z h 9 9 9 J _ _ I `  ...+.V V @...#.` $.Y = t ",
"B = C 9 D _ 9 9 9 J _ _ P 9 %.V V V V V V &.9 9 Y = t ",
"B = C 9 D _ K *.=.-.X ( ;.=.>.,.'.).).!.,.~.{.) Y = t ",
"B = C 9 0 I _ ].V ^./.(._.:.<.[.}.|.|.1.[.2.= 3.4.5.A ",
"6.= C 9 9 9 q ].V V V 7.8.|.9.[.}.|.|.1.[.2.= = 5.    ",
"$ t 0.a.b.9 0 c.V V V d.e.|.f.g.h.|.|.i.g.j.= k.A     ",
"  . o = p 9 9 l.V V V m.|.|.|.|.|.|.|.|.|.n.= r .     ",
"  . c o.p.q.9 r.s.t.V u.v.|.|.|.|.|.|.w.x.y.= r .     ",
"  . . . * = 9 9 9 z.V V A.|.|.|.|.|.|.).V B.= r .     ",
"  . . . C.D.E.F.9 G.H.I.J.K.K.K.K.K.K.L.M.N.D.O..     ",
"  . . . . . P.Q.9 9 9 R.S.T.T.T.T.T.U.V.= b . . .     ",
"  . . . . . P.Q.9 9 9 k W.X.X.X.X.X.Y.Z.= b . . .     ",
".       `. +.+++9 X @+P W.X.X.X.#+$+%+&+*+=+ +-+  . . ",
".       ;+= >+,+9 J _ _ W.X.X.X.'+)+!+M V B.= ~+  . . ",
".       ;+= >+{+]+^+_ _ W.X./+(+_+)+!+M V B.= ~+  . . ",
".       ;+P.:+>+>+<+_ _ W.X.[+}+}+}+!+|+1+2+P.~+  . . ",
".           P.Q.9 J _ _ 3+4+4+4+4+4+5+Z.= 6+      . . ",
".       7+8+P.9+0+a+b+b+c+d+e+4+4+4+f+g+h+i+8+j+  . . ",
".       k+l+P.m+n+o+4+4+p+n+q+4+4+4+r+s+l+l+l+t+  . . ",
".   u+v+w+l+P.x+y+z+A+B+C+D+E+F+G+A+H+s+l+l+l+I+J+. . ",
"  . K+L+L+L+= Q.9 J _ M+= = e 9 0 _ N+O+L+L+L+L+P+    ",
"  . K+L+L+L+Q+R+S+T+U+V+W+W+X+Y+Z+`+ @.@L+L+L+L+P+    ",
"  . +@@@P+L+L+L+L+l+l+l+l+l+l+l+l+L+L+L+L+L+L+#@$@    ",
"  . . . %@L+L+L+L+l+l+l+l+l+l+l+l+L+L+L+L+L+L+&@.     "};
