/* XPM */
static char * pu1_xpm[] = {
"24 36 212 2",
"  	c #509B66",
". 	c #509B66",
"+ 	c #3D3D3D",
"@ 	c #030303",
"# 	c #040404",
"$ 	c #424242",
"% 	c #050505",
"& 	c #070707",
"* 	c #3E3E3E",
"= 	c #323232",
"- 	c #282828",
"; 	c #000000",
"> 	c #170D05",
", 	c #28180C",
"' 	c #403631",
") 	c #4C4C4C",
"! 	c #1C0F07",
"~ 	c #1F1108",
"{ 	c #0D0602",
"] 	c #161616",
"^ 	c #382414",
"/ 	c #573A23",
"( 	c #2F1E0F",
"_ 	c #3F2617",
": 	c #472D1B",
"< 	c #24160A",
"[ 	c #3A3A3A",
"} 	c #1B1B1B",
"| 	c #2B1C12",
"1 	c #2C1A0E",
"2 	c #3C2616",
"3 	c #3E2817",
"4 	c #4A301C",
"5 	c #3D2616",
"6 	c #4C311D",
"7 	c #4F341F",
"8 	c #4B311D",
"9 	c #2A2A2A",
"0 	c #301C0F",
"a 	c #402717",
"b 	c #543821",
"c 	c #482E1B",
"d 	c #573A22",
"e 	c #3B2615",
"f 	c #3F3F3F",
"g 	c #3F2917",
"h 	c #533621",
"i 	c #563922",
"j 	c #543721",
"k 	c #523620",
"l 	c #4D331E",
"m 	c #362113",
"n 	c #101010",
"o 	c #646464",
"p 	c #4B4B4B",
"q 	c #3D3B3B",
"r 	c #0A0402",
"s 	c #432C19",
"t 	c #462C1A",
"u 	c #211D1C",
"v 	c #707070",
"w 	c #828282",
"x 	c #545454",
"y 	c #221209",
"z 	c #4E331E",
"A 	c #553822",
"B 	c #321E10",
"C 	c #345EA6",
"D 	c #422818",
"E 	c #432918",
"F 	c #0D0D0D",
"G 	c #24160D",
"H 	c #3A2314",
"I 	c #3E2516",
"J 	c #513520",
"K 	c #533721",
"L 	c #3F5794",
"M 	c #3B5898",
"N 	c #4A486C",
"O 	c #442B19",
"P 	c #262626",
"Q 	c #4B301D",
"R 	c #464C77",
"S 	c #355596",
"T 	c #3F3449",
"U 	c #4E321E",
"V 	c #49322B",
"W 	c #3C3D60",
"X 	c #3F2616",
"Y 	c #2F1B0F",
"Z 	c #2C1C12",
"` 	c #181818",
" .	c #363636",
"..	c #3D2516",
"+.	c #131313",
"@.	c #77543E",
"#.	c #986C51",
"$.	c #543725",
"%.	c #8D644A",
"&.	c #92674D",
"*.	c #865F47",
"=.	c #AB7A5C",
"-.	c #5B3D2A",
";.	c #432919",
">.	c #412817",
",.	c #9E7155",
"'.	c #A37558",
").	c #141414",
"!.	c #A17357",
"~.	c #AC7B5D",
"{.	c #8C6249",
"].	c #6A4934",
"^.	c #4E3627",
"/.	c #8F664B",
"(.	c #9C6F53",
"_.	c #966A50",
":.	c #6E4C37",
"<.	c #825B43",
"[.	c #A27457",
"}.	c #996D51",
"|.	c #442F21",
"1.	c #202020",
"2.	c #513620",
"3.	c #694830",
"4.	c #875F45",
"5.	c #5F4029",
"6.	c #845D43",
"7.	c #6F4D34",
"8.	c #777777",
"9.	c #5C5C5C",
"0.	c #4D3D33",
"a.	c #412C20",
"b.	c #523721",
"c.	c #543822",
"d.	c #452F20",
"e.	c #443024",
"f.	c #696969",
"g.	c #875F47",
"h.	c #593C29",
"i.	c #442A19",
"j.	c #9F7155",
"k.	c #A47559",
"l.	c #1D1D1D",
"m.	c #53445D",
"n.	c #383962",
"o.	c #494F7B",
"p.	c #474368",
"q.	c #463E5F",
"r.	c #3F426C",
"s.	c #35345D",
"t.	c #9E725D",
"u.	c #494E85",
"v.	c #204991",
"w.	c #2C65B5",
"x.	c #224F99",
"y.	c #1D438A",
"z.	c #2C64B4",
"A.	c #2555A0",
"B.	c #9D7367",
"C.	c #3D3E3E",
"D.	c #222327",
"E.	c #594133",
"F.	c #654634",
"G.	c #2F4382",
"H.	c #1E458C",
"I.	c #15356C",
"J.	c #0D2450",
"K.	c #224F98",
"L.	c #5C464D",
"M.	c #624533",
"N.	c #2E2E32",
"O.	c #4B4B4D",
"P.	c #393940",
"Q.	c #121216",
"R.	c #1A3E81",
"S.	c #0C234E",
"T.	c #1D4289",
"U.	c #071A3D",
"V.	c #050506",
"W.	c #404145",
"X.	c #8F8F8F",
"Y.	c #535359",
"Z.	c #3B2520",
"`.	c #3F2823",
" +	c #301E1E",
".+	c #020617",
"++	c #30323C",
"@+	c #4E4E54",
"#+	c #030718",
"$+	c #1E141A",
"%+	c #180D0A",
"&+	c #3A3A40",
"*+	c #4A4A4C",
"=+	c #525259",
"-+	c #1A1A1E",
";+	c #0B0B0C",
">+	c #3C281C",
",+	c #412B1E",
"'+	c #332118",
")+	c #101011",
"!+	c #38393E",
"~+	c #111112",
"{+	c #281C17",
"]+	c #463023",
"^+	c #1E1310",
"/+	c #0E0E10",
"(+	c #49494C",
"_+	c #949494",
":+	c #656669",
"<+	c #3D3D42",
"[+	c #444548",
"}+	c #525253",
"    . . . . . + @ @ # $   % # # # # @ & . . . . ",
"    . . * = = - ; > , ' ) ! ~ , , , { # . . . . ",
"    . . ] ; ; ; ; ^ / ( ; _ : / / / < # . . . . ",
"    [ } | 1 2 3 3 4 / 5 1 6 7 / 8 3 > # . . . . ",
"    9 ; 0 a b / / / / c a d / / e ; ; # . . . . ",
". . f ; g h i / / / / j h / / / k l 5 m n 9     ",
"o p q r s / / / / / / / / / / / / / t _ r u v w ",
"x ; y a z / / / / / / / / / / / / / / A a B ; [ ",
"x ; y a z / / / / / / / / / / / / / / A a B ; [ ",
"x ; y a z / / / / / / / / / / / / / / A a B ; [ ",
"x ; y a z / / / / / / / / / / / / / / A a B ; [ ",
"x ; y a z / / / / / / / / / / C / / / A a B ; [ ",
"x ; y a D E A / / / / / / / / C / / : E a B ; [ ",
"w F G H I a J K K A / / / / L M N K O a a B ; P ",
"    9 ; 0 a a a a Q / / / / R S T a a a a B ; P ",
"    9 ; 0 a a a a t U U U U V W a a a X Y Z `  .",
"    9 ; 0 a a a a a a a a a a a a a a ..; +.. . ",
"    9 ; @.#.$.a a a a a a a a a a a %.&.; +.. . ",
"    9 ; *.=.-.;.;.D a a a a >.;.;.;.,.'.; ).. . ",
"    . . ] ; !.~.~.{.a a a a ].~.~.~.^.# . . . . ",
"    . . ] ; /.(.~._.:.:.:.:.<.~.[.}.|.# . . . . ",
". .     1.; 2.3.~.~.~.~.~.~.~.~.4./ < &         ",
". .     1.; 2.5.6.6.6.6.6.6.6.6.7./ < &         ",
". .     1.; 2./ / / / / / / / / / / < &         ",
". .     1.; 2./ / / / / / / / / / / < &         ",
". . 8.9.0.a.b.A / / / / / / / / i c.d.e.9.f.    ",
". . f ; g.~.h.i./ / / / / / / / 6 a j.k.; l.    ",
". . f ; g.~.m.n.o.o.o.p.q.o.o.o.r.s.t.k.; l.    ",
". . f ; g.~.u.v.w.w.w.x.y.z.w.w.A.y.B.k.; l.    ",
"    C.D.E.F.G.H.x.x.x.I.J.K.x.x.v.y.L.M.D.N.. . ",
"    O.P.Q.; R.y.y.y.y.S.; T.y.y.y.y.U.V.P.W.. . ",
"X.Y.P.P.Q.; Z.`.`. +.+++@+#+$+`.`.`.%+V.P.P.&+*+",
"X.=+P.P.-+;+>+,+,+'+)+!+=+~+{+]+]+]+^+/+P.P.P.(+",
"X.=+P.P.P.P.P.P.P.P.=+=+=+=+=+=+=+=+P.P.P.P.P.(+",
"_+:+W.P.P.P.P.P.P.P.=+=+=+=+=+=+=+=+P.P.P.<+[+}+",
"    O.P.P.P.P.P.P.P.=+=+=+=+=+=+=+=+P.P.P.W.. . "};
