/* XPM */
static char * pu2_xpm[] = {
"27 36 191 2",
"  	c #509B66",
". 	c #509B66",
"+ 	c #282828",
"@ 	c #040404",
"# 	c #0B0B0B",
"$ 	c #383838",
"% 	c #030303",
"& 	c #1D1D1D",
"* 	c #333333",
"= 	c #323232",
"- 	c #1B1B1B",
"; 	c #000000",
"> 	c #24150A",
", 	c #2B1C10",
"' 	c #4C4C4C",
") 	c #352D29",
"! 	c #1B0E06",
"~ 	c #28180C",
"{ 	c #22150A",
"] 	c #010101",
"^ 	c #4F341F",
"/ 	c #533721",
"( 	c #26150A",
"_ 	c #402717",
": 	c #50341F",
"< 	c #573A23",
"[ 	c #4D331E",
"} 	c #262626",
"| 	c #2C190D",
"1 	c #321E10",
"2 	c #3E2817",
"3 	c #543821",
"4 	c #2C1A0E",
"5 	c #3B2415",
"6 	c #4D311E",
"7 	c #543721",
"8 	c #402917",
"9 	c #362313",
"0 	c #0F0F0F",
"a 	c #472D1B",
"b 	c #553822",
"c 	c #4A2F1C",
"d 	c #120903",
"e 	c #161616",
"f 	c #523620",
"g 	c #573A22",
"h 	c #533621",
"i 	c #4E331E",
"j 	c #49301C",
"k 	c #382213",
"l 	c #2F1E13",
"m 	c #101010",
"n 	c #535353",
"o 	c #7F7F7F",
"p 	c #707070",
"q 	c #1B1615",
"r 	c #0A0402",
"s 	c #563922",
"t 	c #422818",
"u 	c #2F1C0F",
"v 	c #464544",
"w 	c #717171",
"x 	c #313131",
"y 	c #352012",
"z 	c #1C0F06",
"A 	c #432918",
"B 	c #492E1B",
"C 	c #412818",
"D 	c #080808",
"E 	c #321E11",
"F 	c #3A2314",
"G 	c #462C1A",
"H 	c #020202",
"I 	c #4B301D",
"J 	c #4E321E",
"K 	c #452B19",
"L 	c #2F1B0F",
"M 	c #251A15",
"N 	c #1A1A1A",
"O 	c #2D1A0E",
"P 	c #976B50",
"Q 	c #886047",
"R 	c #5D3E2B",
"S 	c #986C51",
"T 	c #6F4E39",
"U 	c #AA795C",
"V 	c #432919",
"W 	c #402817",
"X 	c #422918",
"Y 	c #664531",
"Z 	c #AB7A5C",
"` 	c #7D5842",
" .	c #5C402F",
"..	c #AC7B5D",
"+.	c #60402D",
"@.	c #92684D",
"#.	c #9A6E53",
"$.	c #523829",
"%.	c #996D51",
"&.	c #A47558",
"*.	c #7C5740",
"=.	c #6E4C37",
"-.	c #9A6E52",
";.	c #9B6E52",
">.	c #896148",
",.	c #2C1B0E",
"'.	c #8D6449",
").	c #5F4029",
"!.	c #724F37",
"~.	c #845D43",
"{.	c #5B3D26",
"].	c #1F1F1F",
"^.	c #9F7155",
"/.	c #91674C",
"(.	c #6C4B33",
"_.	c #A07256",
":.	c #7A5742",
"<.	c #505050",
"[.	c #543822",
"}.	c #6F4D35",
"|.	c #7E5942",
"1.	c #4B4B4B",
"2.	c #996C51",
"3.	c #654531",
"4.	c #202020",
"5.	c #876048",
"6.	c #78574E",
"7.	c #35345D",
"8.	c #41446F",
"9.	c #494F7B",
"0.	c #494E79",
"a.	c #463E5F",
"b.	c #47456B",
"c.	c #36375F",
"d.	c #504159",
"e.	c #705341",
"f.	c #5C5C5C",
"g.	c #0A2049",
"h.	c #1D438A",
"i.	c #2657A3",
"j.	c #2C65B5",
"k.	c #2B62B1",
"l.	c #23529C",
"m.	c #1E468D",
"n.	c #193B7B",
"o.	c #444548",
"p.	c #3F4044",
"q.	c #204A92",
"r.	c #224F99",
"s.	c #214C94",
"t.	c #0D2450",
"u.	c #173973",
"v.	c #1D448B",
"w.	c #18181A",
"x.	c #535354",
"y.	c #3E3F43",
"z.	c #393940",
"A.	c #1B3F83",
"B.	c #0F2857",
"C.	c #16171A",
"D.	c #4F4F50",
"E.	c #46464A",
"F.	c #3A3A40",
"G.	c #1E110E",
"H.	c #3F2823",
"I.	c #181019",
"J.	c #070B1B",
"K.	c #4E4E54",
"L.	c #2A2C37",
"M.	c #020617",
"N.	c #33201F",
"O.	c #38231E",
"P.	c #3A3A41",
"Q.	c #3A3B41",
"R.	c #0C0C0D",
"S.	c #231712",
"T.	c #412B1E",
"U.	c #463023",
"V.	c #231815",
"W.	c #151517",
"X.	c #525259",
"Y.	c #333438",
"Z.	c #101011",
"`.	c #3B281E",
" +	c #3A261B",
".+	c #0B0B0C",
"++	c #1D1E22",
"@+	c #4F5050",
"#+	c #3C3D42",
"$+	c #414245",
"%+	c #454649",
"  . . . . . . . .                 . . . . . . . .     ",
"  . . . . . . . . + @ @ #   $ @ @ % % % % & . . .     ",
"  . . . . . * = = - ; > , ' ) ! > ~ ~ { ; - . . .     ",
"  . . . . . ] ; ; ; ; ^ / ; ( _ : < < [ ; - . . .     ",
"  . . . } - | 1 2 2 2 / 3 4 5 6 7 < 8 9 ; - . . .     ",
"  . . . 0 ; _ a < < < < b _ c < < < d ; ; - . . .     ",
".       e ; f 7 < < < < g h 3 < < < i j k l m n   . . ",
".   o p q r s < < < < < < < < < < < < / t u r v w . . ",
".   x ; y _ g < < < < < < < < < < < < < < 6 _ z @ . . ",
".   x ; y _ g < < < < < < < < < < < < < < 6 _ z @ . . ",
".   x ; y _ g < < < < < < < < < < < < < < 6 _ z @ . . ",
".   x ; y _ g < < < < < < < < < < < < < < 6 _ z @ . . ",
".   x ; y _ g < < < < < < < < < < < < < < 6 _ z @ . . ",
".   x ; y _ A B < < < < < < < < < < < / A C _ z @ . . ",
"  . } D E F _ G / / / s < < < < b / / : _ _ _ z H     ",
"  . . . 0 ; _ _ _ _ _ / < < < < B _ _ _ _ _ _ z H     ",
"  . . . 0 ; _ _ _ _ _ I J J J J K _ _ _ _ k L M N     ",
"  . . . 0 ; _ _ _ _ _ _ _ _ _ _ _ _ _ _ _ O ; = .     ",
"  . . . 0 ; P Q _ _ _ _ _ _ _ _ _ _ _ R S T ; = .     ",
"  . . . 0 ; U S V V V W _ _ _ _ X V V Y Z ` ; = .     ",
"  . . . . . ]  .......+._ _ _ _ @.....#.; - . . .     ",
"  . . . . . ] $.%.&...*.=.=.=.=.-...;.>.; - . . .     ",
".           ] ,.< '.................).[ ; +       . . ",
".           ] ,.< !.~.~.~.~.~.~.~.~.{.[ ; +       . . ",
".           ] ,.< < < < < < < < < < < [ ; +       . . ",
".       ].# ^./.< < < < < < < < < < < (._.:.# <.  . . ",
".       e ; Z ;.[.s < < < < < < < < b }...|.; 1.  . . ",
".       e ; Z 2._ J < < < < < < < < X 3...|.; 1.  . . ",
".       x 4.5.6.7.8.9.9.0.a.b.9.9.9.c.d.5.e.4.f.  . . ",
".           ] g.h.i.j.j.k.h.l.j.j.j.m.n.; +       . . ",
"  . . . o.p.] g.h.q.r.r.s.t.u.r.r.r.v.n.; w.p.x..     ",
"  . . . y.z.; g.h.h.h.h.A.; B.h.h.h.h.n.; C.z.D..     ",
"  . E.F.z.z.; G.H.H.H.I.J.K.L.M.N.H.H.O.; C.z.P.Q.    ",
"  . E.z.z.z.R.S.T.U.U.V.W.X.Y.Z.`.T.T. +.+++z.z.F.    ",
"  . E.z.z.z.z.z.z.X.X.X.X.X.X.X.X.z.z.z.z.z.z.z.F.    ",
"  . @+o.#+z.z.z.z.X.X.X.X.X.X.X.X.z.z.z.z.z.z.$+%+    "};
